<svg width="852" height="1441" fill="none" xmlns="http://www.w3.org/2000/svg"><path fill-rule="evenodd" clip-rule="evenodd" d="M1 1441h853.278v-132.52H1V1441z" fill="#CCC" fill-opacity=".2"/><path fill-rule="evenodd" clip-rule="evenodd" d="M1 1441h853.278v-132.52H1V1441z" fill="url('#paint0_linear')"/><path fill-rule="evenodd" clip-rule="evenodd" d="M1 1441h853.278v-132.52H1V1441z" fill="url('#paint1_linear')"/><path fill-rule="evenodd" clip-rule="evenodd" d="M1 1441h853.278v-132.52H1V1441z" fill="url('#paint2_linear')"/><path fill-rule="evenodd" clip-rule="evenodd" d="M1 1441h853.278v-132.52H1V1441z" fill="url('#paint3_linear')"/><path d="M1 1441h853.278v-132.52H1V1441z" stroke="#000" stroke-opacity=".2" stroke-width="1.01"/><path fill-rule="evenodd" clip-rule="evenodd" d="M157.826 1307.9h539.666v-139.09H157.826v139.09z" fill="#CCC" fill-opacity=".2" stroke="#000" stroke-opacity=".2" stroke-width=".667"/><path fill-rule="evenodd" clip-rule="evenodd" d="M157.826 1307.9h539.666v-139.09H157.826v139.09z" fill="url('#paint4_linear')"/><path fill-rule="evenodd" clip-rule="evenodd" d="M157.826 1307.9h539.666v-139.09H157.826v139.09z" fill="url('#paint5_linear')"/><path fill-rule="evenodd" clip-rule="evenodd" d="M157.826 1307.9h539.666v-139.09H157.826v139.09z" fill="url('#paint6_linear')"/><path fill-rule="evenodd" clip-rule="evenodd" d="M157.826 1307.9h539.666v-139.09H157.826v139.09z" fill="url('#paint7_linear')"/><path fill-rule="evenodd" clip-rule="evenodd" d="M265.489 270.908h339.689v898.022H265.489V270.908z" fill="#CCC" fill-opacity=".2" stroke="#000" stroke-opacity=".2" stroke-width=".917"/><path fill-rule="evenodd" clip-rule="evenodd" d="M265.489 270.908h339.689v898.022H265.489V270.908z" fill="url('#paint8_linear')"/><path fill-rule="evenodd" clip-rule="evenodd" d="M265.489 270.908h339.689v898.022H265.489V270.908z" fill="url('#paint9_linear')"/><path fill-rule="evenodd" clip-rule="evenodd" d="M265.489 270.908h339.689v898.022H265.489V270.908z" fill="url('#paint10_linear')"/><path fill-rule="evenodd" clip-rule="evenodd" d="M265.489 270.908h339.689v898.022H265.489V270.908z" fill="url('#paint11_linear')"/><path fill-rule="evenodd" clip-rule="evenodd" d="M313.308 338.65h39.46v789.19h-39.46V338.65z" fill="#fff" fill-opacity=".1" stroke="#000" stroke-opacity=".2"/><path fill-rule="evenodd" clip-rule="evenodd" d="M417.264 338.65h39.46v789.19h-39.46V338.65zm103.957 0h39.46v789.19h-39.46V338.65z" fill="#fff" fill-opacity=".05" stroke="#000" stroke-opacity=".2"/><path fill-rule="evenodd" clip-rule="evenodd" d="M160.372 132.817h534.535v137.762H160.372V132.817z" fill="#CCC" fill-opacity=".2" stroke="#000" stroke-opacity=".2" stroke-width=".66"/><path fill-rule="evenodd" clip-rule="evenodd" d="M160.372 132.817h534.535v137.762H160.372V132.817z" fill="url('#paint12_linear')"/><path fill-rule="evenodd" clip-rule="evenodd" d="M160.372 132.817h534.535v137.762H160.372V132.817z" fill="url('#paint13_linear')"/><path fill-rule="evenodd" clip-rule="evenodd" d="M160.372 132.817h534.535v137.762H160.372V132.817z" fill="url('#paint14_linear')"/><path fill-rule="evenodd" clip-rule="evenodd" d="M160.372 132.817h534.535v137.762H160.372V132.817z" fill="url('#paint15_linear')"/><path fill-rule="evenodd" clip-rule="evenodd" d="M5.037 1h845.164v131.261H5.037V1z" fill="#CCC" fill-opacity=".2"/><path fill-rule="evenodd" clip-rule="evenodd" d="M5.037 1h845.164v131.261H5.037V1z" fill="url('#paint16_linear')"/><path fill-rule="evenodd" clip-rule="evenodd" d="M5.037 1h845.164v131.261H5.037V1z" fill="url('#paint17_linear')"/><path fill-rule="evenodd" clip-rule="evenodd" d="M5.037 1h845.164v131.261H5.037V1z" fill="url('#paint18_linear')"/><path fill-rule="evenodd" clip-rule="evenodd" d="M5.037 1h845.164v131.261H5.037V1z" fill="url('#paint19_linear')"/><path d="M5.037 1h845.164v131.261H5.037V1z" stroke="#000" stroke-opacity=".2"/><path d="m254.287 531.981-1.174.97c0 1.729-2.223 4.431-6.67 8.106a10.598 10.598 0 0 0 2.755 1.624l.778.643-1.964 1.623c-2.618 2.165-6.217 3.302-10.795 3.41-4.579.109-8.437 1.46-11.574 4.054l-.779-.644c.001-1.293.392-3.134 1.174-5.523-3.664.007-7.72-1.181-12.167-3.563l1.174-.971c3.928-1.081 6.806-2.378 8.634-3.889a63.545 63.545 0 0 1-1.569-9.73l5.509-8.434c1.046.865 2.876 1.837 5.49 2.915 2.615 1.079 4.445 2.051 5.491 2.915 1.836 1.518 3.014 3.356 3.532 5.514l12.155.98zm25.507 6.809c-1.565 2.165-2.215 3.139-1.952 2.92-.527.436-4.846 2.06-12.957 4.87l-1.557 1.94 4.311.97-.79.654c-2.874 2.376-6.666 3.563-11.377 3.563.001 2.165-.786 3.897-2.359 5.197-1.045.864-4.183 1.729-9.412 2.593-5.229.865-8.63 1.729-10.203 2.593-.782-1.082 1.573-3.893 7.066-8.433 4.183-3.457 8.366-5.186 12.549-5.187l1.569-1.95c1.31-1.081 3.274-1.622 5.892-1.623.519-2.157 1.565-3.886 3.137-5.187.527-.435 5.888-1.408 16.083-2.92zm-45.122 13.304c-.782 4.975-3.656 9.515-8.622 13.62-1.573 1.3-3.014 2.055-4.323 2.266-.263-3.675 3.529-8.756 11.376-15.243l1.569-.643zm-23.148 10.7c3.401 2.811 3.401 5.622 0 8.433s-7.065 2.593-10.993-.653c-2.61-2.158-2.083-4.751 1.581-7.78 3.138-2.593 6.275-2.593 9.412 0zm93.382 5.186c-.783 2.376-2.483 5.728-5.102 10.057 1.046.865 2.355 2.593 3.928 5.187-.256 3.246-.124 7.895.395 13.946-7.848 3.465-15.04 2.495-21.579-2.91l-4.706-5.197c-3.664 1.736-6.934 2.71-9.808 2.92.264-1.946.128-4.434-.407-7.463h-1.557c-5.237 1.729-9.551 1.838-12.945.327a156.6 156.6 0 0 0-.203-7.622c-.128-2.488.986-4.704 3.341-6.651 3.401-2.811 7.193-3.243 11.376-1.297s6.407 2.811 6.67 2.593c.519-.428-.069-2.103-1.766-5.023-1.697-2.92-1.499-5.244.593-6.973 1.565-1.293 3.002-1.617 4.311-.97l.778-1.297c2.355-1.946 4.71-1.946 7.065 0 .519.429 1.046 3.023 1.581 7.78 2.347-.211 4.503-.372 6.467-.485 1.963-.113 4.778.7 8.442 2.435l3.126.643zm-50.619 44.433c4.191 3.465 4.327 6.817.407 10.057-2.618 2.165-6.023.868-10.214-3.89-1.31.647-4.447 1.293-9.413 1.94-1.572-.864-3.993-2.106-7.263-3.727-3.269-1.62-6.476-1.565-9.622.164-4.438 2.811-6.921 4.216-7.448 4.216 1.836-2.375 3.668-4.318 5.496-5.83 8.112-6.704 14.913-7.786 20.406-3.246 7.065-3.676 12.949-3.57 17.651.316zm-8.239-32.11c-11.775 5.841-20.277 10.922-25.507 15.244-6.019 4.976-11.116 9.842-15.292 14.6 4.966-1.518 9.281-1.845 12.945-.98l-.79.653c-8.893 2.165-14.777 4.435-17.651 6.81-6.283 5.193-5.369 16.764 2.742 34.713 7.329 15.996 14.786 27.128 22.369 33.396.791.654 2.491 1.631 5.102 2.93 2.092 1.294 3.397 2.373 3.916 3.237v.653c-2.347 1.941-6.79.208-13.329-5.196-6.019-4.976-12.364-13.787-19.034-26.433-6.67-12.647-10.137-22.431-10.4-29.354-.264-6.922 1.633-12.705 5.688-17.351 4.055-4.646 8.179-9.347 12.37-14.105.256-4.54 1.298-8.001 3.126-10.383 3.137-4.758 5.099-7.894 5.885-9.408.786-1.515.525-3.46-.784-5.835-1.31-2.376-1.828-4.105-1.557-5.187l3.521 1.623c3.92 3.241 4.706 7.348 2.359 12.323-.263 1.512-2.618 5.623-7.065 12.334 16.478-11.033 26.94-15.794 31.386-14.284zm63.576 44.117c1.045.864 2.223 2.267 3.532 4.207-.527.435-1.706.546-3.538.331-1.833-.215-3.399.216-4.7 1.292l1.568 1.297c2.882 2.382 6.151 3.355 9.808 2.919-1.31 1.954-2.224 3.145-2.743 3.574-1.309 1.082-3.664 2.164-7.065 3.246l4.311 3.564c2.882 2.382 3.014 6.602.395 12.659-1.045-.441-4.055-.982-9.029-1.623-3.137-.442-5.62-2.065-7.448-4.87l-1.186.327-.191 1.455c-.128.97-.715 1.887-1.761 2.752-1.053.871-3.409 2.171-7.065 3.9-.263-1.511-1.573-3.458-3.928-5.84-2.355-2.383-3.269-5.085-2.742-8.107-4.966.647-8.89.538-11.772-.327a132.086 132.086 0 0 1-8.634-2.92l3.916-1.95c.783-.646 1.763-2.429 2.94-5.35 1.177-2.92 2.553-5.029 4.126-6.329 3.401-2.811 7.584-1.511 12.549 3.899l.395-.326-.778-2.584c-3.137-3.899-1.96-8.119 3.533-12.659 2.618-2.165 5.496-3.243 8.634-3.237 0 1.729.523 4.108 1.569 7.137 6.275-.871 11.376.316 15.304 3.563zm-124.002 3.237.791 1.306c-7.592 14.92-6.419 26.488 3.52 34.703 1.31 1.083 3.535 2.272 6.676 3.569 3.141 1.296 5.367 2.486 6.676 3.568l1.174 1.623c-7.065-.217-13.735-2.92-20.01-8.106-5.756-4.758-8.307-10.651-7.652-17.679.654-7.028 3.596-13.355 8.825-18.984zm71.814 11.353c-5.755 1.735-10.465 4.118-14.13 7.146-4.702 3.887-8.428 9.237-11.179 16.05-2.75 6.813-3.211 12.705-1.383 17.673l-1.174.971c-6.801-13.831-4.051-25.831 8.251-36 6.802-5.622 13.341-7.569 19.615-5.84zm109.081 21.41 1.185 2.919c1.31.647 2.356 1.294 3.138 1.941 1.573 1.3 1.441 2.709-.395 4.226-1.046.865-2.288 1.35-3.725 1.455-1.436.106-3.205 1.026-5.304 2.762-3.401 2.811-6.148 3.352-8.239 1.623 0-.435-.783-2.6-2.347-6.493-1.054-2.164-.667-4.002 1.161-5.514 6.02-4.975 10.862-5.948 14.526-2.919zm-26.285 8.106-1.964.97c-3.146 2.6-2.491 5.953 1.964 10.057l-1.964.97-3.928 4.553c-2.347 1.94-4.439 2.151-6.275.633-.255-.21-.255-1.939 0-5.186-2.618 0-4.71-.647-6.275-1.94-4.183-3.458-3.792-6.374 1.174-8.75-.783-3.682-.651-5.955.395-6.82 2.092-1.729 4.772-1.674 8.041.163 3.269 1.838 6.213 3.621 8.832 5.35zm-52.978 10.057c0 5.187-1.177 8.753-3.532 10.7-1.046.864-3.27 1.838-6.671 2.92-2.091 2.164-3.005 3.138-2.742 2.92-8.893 7.351-17.787 9.297-26.68 5.84l.383-.97a198.198 198.198 0 0 1 9.82-1.624c6.275-1.293 11.244-3.454 14.909-6.483.782-.647 1.435-1.945 1.957-3.895.523-1.95 1.567-3.571 3.132-4.865 1.054-.871 4.195-2.385 9.424-4.543zm60.043 3.563c7.065 5.84 6.674 13.95-1.173 24.33-1.581-1.729-3.154-5.404-4.719-11.027-.263-1.511.585-3.726 2.545-6.646s2.812-5.139 2.557-6.657h.79zm-74.173 38.603c-9.157 3.676-18.964 1.191-29.423-7.453-8.111-6.704-11.38-12.871-9.807-18.5 3.137 5.629 6.798 10.172 10.981 13.63 8.111 6.704 17.527 10.812 28.249 12.323zm129.498-35.673a145.083 145.083 0 0 1 9.017 8.107c3.145 3.893 3.281 7.028.407 9.403-.79.653-1.84 1.086-3.149 1.297-.783 10.162.918 17.836 5.101 23.023l15.699 16.876c-2.618-.435-6.019-2.382-10.203-5.84l-5.891-4.87c-9.94-8.215-12.686-18.272-8.239-30.169-.782-.211-1.437-.535-1.964-.97-4.702-3.887-4.962-9.506-.778-16.857zm116.541 19.777c-1.573 1.3-4.579 3.137-9.018 5.513l1.557.653c6.019 4.54 8.506 12.429 7.461 23.667l-.384-.317c.256.211-3.149-.006-10.214-.653-7.066-.647-12.558-1.943-16.478-3.89-1.046 1.735-2.615 3.468-4.706 5.196-.264.218-1.968.974-5.114 2.267l-2.347-3.247-6.67-4.206c-1.046-.865-2.219-2.488-3.52-4.87-3.146.435-7.597.432-13.353-.01 1.573-2.158 1.966-5.182 1.18-9.072-.786-3.89-.261-6.594 1.575-8.111 3.137-2.594 7.255-2.107 12.352 1.46 5.097 3.566 8.432 4.7 10.005 3.4 1.046-.865.132-2.485-2.742-4.86l-1.174-.97c-6.019-4.976-6.674-9.41-1.964-13.304 2.874-2.375 6.275-3.886 10.203-4.533 5.493-.646 9.021-1.188 10.586-1.623.79 1.947 1.054 5.404.79 10.373 4.447-1.511 8.437-1.239 11.969.817a156.665 156.665 0 0 1 10.006 6.32zm-186.775 9.73c1.565 1.293 3.134 3.672 4.706 7.136l-21.974-10.383c-9.157-2.804-17.659-.963-25.507 5.523-3.137 2.594-5.364 5.51-6.682 8.75l-1.161.327c-.79-4.533 1.042-8.641 5.496-12.323 6.012-4.969 13.53-7.294 22.555-6.974 9.025.32 16.548 2.968 22.567 7.944zm28.249-14.264c6.275 5.623 10.001 13.351 11.179 23.187 1.177 9.835-1.503 17.455-8.041 22.86-5.237 4.329-10.341 4.98-15.31 1.955a200.5 200.5 0 0 1-14.113-9.409l3.916-.643c1.573-.007 5.365 2.046 11.376 6.157 3.665 2.158 7.457 1.616 11.376-1.624 9.94-8.215 9.417-21.838-1.568-40.869l1.185-1.614zm-1.173 34.703c-.264.218.127 1.188 1.173 2.91-3.409-1.511-8.642-3.236-15.699-5.176-3.145-.871-12.17-1.416-27.075-1.633-12.295-.212-20.666-2.155-25.112-5.831.263-.217 2.684.052 7.263.807 4.578.755 14.847 1.242 30.805 1.46 13.34.218 22.889 2.706 28.645 7.463zm-45.924 5.514a415.105 415.105 0 0 0-4.312 5.503l4.707 2.603c1.828 1.511 2.486 4.214 1.975 8.107-.263 5.405-.395 8.324-.395 8.76-2.363-.647-5.047-.592-8.053.163-3.006.755-5.554.916-7.646.48-1.054 3.894-1.712 5.949-1.976 6.167-1.046.864-3.071 1.783-6.077 2.756-3.006.974-5.423 2.434-7.251 4.38.255-1.517-1.445-3.787-5.101-6.81-2.355-1.946-3.794-4.109-4.317-6.488-.523-2.379-.916-3.895-1.18-4.548-5.492 1.518-11.248.653-17.268-2.593l1.174-.97c.263-.218.918-2.165 1.964-5.84 1.045-3.676 3.141-6.378 6.286-8.107.256.647-1.708-.759-5.891-4.217-.519-.428-1.108-1.13-1.767-2.103-.658-.973-1.119-1.569-1.383-1.787 3.673-1.728 7.601-3.566 11.784-5.513 4.183-1.947 7.844-1.623 10.981.97 1.309 1.082 2.291 2.976 2.946 5.682.654 2.705 1.373 4.381 2.155 5.028l3.15-1.297 4.311-6.176c2.874-2.376 6.275-2.481 10.202-.317a726.057 726.057 0 0 1 10.982 6.167zm142.442 8.76c1.828 1.511 2.615 3.025 2.359 4.543-1.828-.653-4.706-1.521-8.634-2.603-2.355.217-5.492 0-9.412-.654l2.347-1.94c4.183-3.457 8.63-3.24 13.34.654zm-22.369 2.91v.653c-1.565 1.293-6.534 1.079-14.909-.644a625.19 625.19 0 0 1-16.873-3.573c-4.965.212-11.635-.544-20.01-2.267l.395-.979c3.138-2.158 13.6-1.508 31.387 1.95-2.084-3.029-3.649-4.976-4.695-5.84-9.947-8.222-20.545-7.685-31.793 1.613-4.71 3.893-7.848 8.005-9.413 12.333l-1.185.327c-2.092-4.329 1.046-9.951 9.412-16.867 11.512-9.515 23.156-9.406 34.931.327 2.092 1.729 4.443 4.755 7.054 9.077 3.401 1.082 8.374 2.164 14.921 3.246l.778.644zm77.311 3.563c4.446 3.676 7.063 8.326 7.849 13.951.787 5.626-.784 10.273-4.712 13.942l-.778.01-2.551-6.652c-1.7-4.434-4.251-8.057-7.652-10.868-6.283-5.193-13.674-8.059-22.172-8.596-8.498-.538-15.757 1.681-21.776 6.656-2.355 1.947-4.71 5.19-7.066 9.73l-3.532 6.81-1.569.643-.778-.643c-.272-6.704 2.993-12.868 9.795-18.49 6.539-5.404 14.582-7.945 24.13-7.621 9.548.323 17.723 3.296 24.525 8.918 3.145 2.6 6.287 6.925 9.424 12.976 1.309-7.997-.914-14.375-6.67-19.133-2.882-2.382-7.985-4.654-15.31-6.815-7.325-2.161-12.165-4.215-14.52-6.161-4.183-3.458-5.62-6.592-4.311-9.404h.791c1.828 3.24 3.528 5.51 5.101 6.81 1.828 1.512 6.47 3.293 13.927 5.345 7.456 2.052 13.408 4.917 17.855 8.592zm-123.99 12.333c-.527 1.729-2.754 3.999-6.682 6.81l1.569 1.297c2.1 1.3 3.67 3.463 4.712 6.488a168.791 168.791 0 0 0 3.144 8.438h-11.784c-1.565 3.458-3.261 5.943-5.089 7.454-.79.653-2.297 1.466-4.521 2.44-2.223.973-3.854 2.106-4.891 3.4l-1.186-2.92c-7.329-6.058-10.339-10.492-9.029-13.304-5.493 1.083-10.331-.105-14.514-3.563.264.218-.918-1.188-3.545-4.217l-2.347-.653c2.356-1.511 6.411-3.563 12.167-6.157-1.573-6.051-1.968-10.699-1.186-13.946 2.1.864 4.85 1.297 8.251 1.296 3.401 0 5.756.542 7.065 1.624l.779 1.297c.519.864.387 2.593-.395 5.186-.783 2.593-.519 4.431.79 5.513 1.573 1.3 3.405 1.086 5.497-.643 2.091-1.729 2.351-4.754.778-9.077 2.874-1.517 6.013-1.196 9.418.965 3.405 2.161 7.072 2.919 10.999 2.272zm102.794 14.273c2.355 1.947 1.964 4.217-1.174 6.81-2.355 1.947-7.26 2.65-14.717 2.109-7.456-.542-12.494-1.894-15.112-4.059 5.764-1.293 9.955-3.022 12.573-5.186 6.012-4.969 10.323-6.375 12.933-4.217l.791 3.247c1.565-.436 3.133-.004 4.706 1.296zm37.673 15.56c-.263.218.26.868 1.569 1.95-3.393.218-13.727 3.356-31.003 9.413 1.053-2.164 2.235-3.787 3.544-4.869 3.401-2.812 9.153-5.19 17.256-7.137-6.275-4.329-15.819-11.789-28.632-22.38-1.309-1.082-3.471-2.542-6.484-4.38-3.014-1.838-5.172-3.294-6.473-4.37-.263-.218-.655-.759-1.173-1.623 4.71-.436 10.593 2.263 17.651 8.096 11.775 10.169 16.745 14.495 14.909 12.977l18.836 12.323zm-33.745-1.94c1.045.865.654 2.053-1.174 3.564.256-.211-1.054.442-3.928 1.96.783 1.94.914 3.124.396 3.553-1.31 1.082-4.711.327-10.203-2.267-5.493-2.593-9.285-4.754-11.377-6.483 4.711-.435 9.285-.977 13.724-1.623 6.802-.436 10.989-.004 12.562 1.296zm-40.811-8.433c.527.436.922 1.409 1.185 2.92 1.046.429 2.092 1.076 3.138 1.94 1.828 1.511 1.824 3.026-.012 4.543-.783.647-3.134.65-7.053.01l-7.844-1.95c-2.619 0-6.481 1.351-11.586 4.054-5.105 2.702-8.177 4.053-9.215 4.053l2.347-2.594c1.837-1.517 4.585-3.357 8.245-5.518 3.661-2.161 6.405-3.997 8.233-5.508 4.974-4.111 9.161-4.761 12.562-1.95zm84.376 15.243c-2.619 13.409-.004 23.357 7.843 29.843 6.275 5.187 16.083 8.536 29.423 10.047l.395 1.633c-12.031 2.594-22.365.32-31.003-6.82-4.447-3.675-8.109-9.405-10.987-17.188-2.878-7.783-2.226-13.404 1.958-16.862l1.185-.979 1.186.326zm5.484-5.186c8.111 10.162 12.299 15.352 12.562 15.569 1.828 1.512 4.704 3.457 8.628 5.835 3.924 2.379 6.8 4.324 8.628 5.835 7.329 6.058 12.562 18.17 15.699 36.337l-1.173-.337c-1.31-1.082-3.076-5.676-5.299-13.783-2.223-8.107-5.822-14.215-10.796-18.327-1.828-1.511-4.899-3.617-9.214-6.32-4.315-2.702-7.391-4.812-9.227-6.33-9.412-7.779-12.682-13.939-9.808-18.479zm-21.195 22.053c-1.565 2.6-3.789 6.384-6.67 11.353 3.664.865 7.851 1.732 12.561 2.603v1.287l-3.532 2.92c-.783.647-1.958 1.186-3.527 1.618-1.569.432-2.748.975-3.539 1.629 2.619 9.515 4.842 14.811 6.671 15.886-3.394 2.382-7.643 3.087-12.748 2.114-5.105-.974-9.095-2.866-11.969-5.677-1.309 2.375-3.01 6.156-5.101 11.343l-.791.653-1.173-1.623-9.808-6.8c-4.191-3.464-5.628-7.034-4.311-10.71-2.882-.653-5.105-1.409-6.67-2.267l-3.928-3.246c-1.309-1.94-2.75-3.56-4.323-4.86-.527-.436-2.882-.871-7.065-1.307 3.409-3.24 9.037-7.021 16.885-11.343-1.309-2.811-2.096-6.708-2.359-11.69 3.664.007 7.522-.044 11.574-.153 4.051-.109 7.255.81 9.61 2.756 2.091 1.729 3.009 5.299 2.754 10.71a8.903 8.903 0 0 1 1.964-2.276c3.664-3.029 12.162-4.002 25.495-2.92zM254.287 835.84l-1.173.97c0 1.729-2.223 4.431-6.67 8.107.79.653 1.708 1.194 2.754 1.623l.778.643-1.964 1.624c-2.618 2.164-6.217 3.301-10.795 3.409-4.579.109-8.436 1.461-11.574 4.054l-.778-.644c0-1.293.391-3.134 1.173-5.523-3.664.007-7.72-1.181-12.166-3.563l1.173-.97c3.928-1.082 6.806-2.379 8.634-3.89a63.525 63.525 0 0 1-1.569-9.73l5.509-8.433c1.046.864 2.876 1.836 5.49 2.915 2.615 1.078 4.445 2.051 5.491 2.915 1.836 1.518 3.014 3.355 3.533 5.513l12.154.98zm25.507 6.81c-1.565 2.165-2.215 3.138-1.952 2.92-.527.436-4.846 2.059-12.957 4.87l-1.557 1.94 4.312.97-.791.653c-2.874 2.376-6.666 3.564-11.376 3.564 0 2.164-.786 3.896-2.359 5.196-1.046.865-4.183 1.729-9.413 2.593-5.229.865-8.629 1.73-10.202 2.594-.782-1.082 1.573-3.893 7.065-8.434 4.183-3.457 8.366-5.186 12.55-5.186l1.568-1.95c1.31-1.082 3.274-1.623 5.892-1.623.519-2.158 1.565-3.887 3.138-5.187.527-.435 5.888-1.409 16.082-2.92zm-45.122 13.303c-.782 4.976-3.656 9.516-8.622 13.62-1.572 1.3-3.013 2.056-4.323 2.267-.263-3.676 3.529-8.757 11.377-15.244l1.568-.643zm-23.148 10.7c3.402 2.811 3.402 5.622 0 8.433-3.401 2.811-7.065 2.594-10.993-.653-2.61-2.158-2.083-4.751 1.581-7.78 3.138-2.593 6.275-2.593 9.412 0zm93.382 5.187c-.782 2.375-2.483 5.728-5.102 10.056 1.046.865 2.355 2.594 3.928 5.187-.255 3.247-.124 7.896.395 13.946-7.847 3.465-15.04 2.495-21.579-2.91l-4.706-5.196c-3.664 1.736-6.933 2.709-9.808 2.92.264-1.947.129-4.434-.406-7.463h-1.557c-5.237 1.729-9.552 1.838-12.945.326a157.817 157.817 0 0 0-.204-7.621c-.128-2.488.986-4.705 3.341-6.652 3.401-2.811 7.193-3.243 11.377-1.297 4.183 1.946 6.406 2.812 6.67 2.594.519-.429-.07-2.103-1.767-5.024-1.696-2.92-1.498-5.244.593-6.973 1.565-1.293 3.002-1.616 4.311-.97l.778-1.297c2.355-1.946 4.711-1.946 7.066 0 .519.43 1.046 3.023 1.58 7.78 2.348-.211 4.503-.372 6.467-.485 1.964-.112 4.778.7 8.442 2.435l3.126.644zm-50.619 44.433c4.192 3.464 4.327 6.817.407 10.056-2.618 2.165-6.023.868-10.214-3.89-1.309.647-4.447 1.294-9.413 1.94-1.572-.864-3.993-2.106-7.263-3.726-3.269-1.621-6.476-1.566-9.621.163-4.439 2.811-6.922 4.217-7.449 4.217 1.836-2.376 3.669-4.319 5.497-5.83 8.111-6.705 14.913-7.787 20.405-3.247 7.066-3.675 12.949-3.57 17.651.317zm-8.239-32.11c-11.775 5.84-20.277 10.921-25.506 15.243-6.02 4.976-11.117 9.842-15.293 14.6 4.966-1.517 9.281-1.844 12.945-.98l-.79.653c-8.893 2.165-14.777 4.435-17.651 6.81-6.283 5.194-5.369 16.765 2.742 34.713 7.329 15.996 14.786 27.128 22.37 33.397.79.653 2.491 1.63 5.101 2.93 2.092 1.293 3.397 2.372 3.916 3.236v.654c-2.347 1.94-6.79.208-13.328-5.197-6.02-4.975-12.364-13.786-19.035-26.433-6.67-12.647-10.136-22.431-10.4-29.353-.264-6.922 1.633-12.706 5.688-17.352 4.055-4.646 8.179-9.347 12.37-14.105.256-4.539 1.298-8 3.126-10.383 3.138-4.757 5.099-7.893 5.886-9.408.786-1.515.525-3.459-.785-5.835-1.309-2.376-1.828-4.104-1.557-5.187l3.521 1.624c3.92 3.24 4.707 7.348 2.359 12.323-.263 1.511-2.618 5.622-7.065 12.333 16.478-11.033 26.94-15.794 31.386-14.283zm63.576 44.116c1.046.865 2.223 2.267 3.532 4.207-.526.436-1.706.546-3.538.331-1.832-.214-3.399.217-4.7 1.292l1.568 1.297c2.882 2.382 6.152 3.356 9.808 2.92-1.309 1.953-2.223 3.144-2.742 3.573-1.31 1.083-3.664 2.165-7.066 3.247l4.311 3.563c2.882 2.382 3.014 6.602.396 12.66-1.046-.442-4.056-.983-9.03-1.623-3.137-.442-5.62-2.066-7.448-4.87l-1.186.326-.191 1.455c-.128.971-.714 1.888-1.76 2.752-1.054.871-3.409 2.171-7.066 3.9-.263-1.511-1.572-3.458-3.928-5.84-2.355-2.382-3.269-5.084-2.742-8.107-4.965.647-8.889.538-11.771-.326a132.482 132.482 0 0 1-8.634-2.92l3.916-1.95c.782-.647 1.762-2.43 2.939-5.35 1.178-2.92 2.553-5.03 4.126-6.33 3.401-2.811 7.584-1.511 12.55 3.9l.395-.327-.779-2.583c-3.137-3.9-1.959-8.12 3.533-12.66 2.619-2.164 5.497-3.243 8.634-3.237 0 1.729.523 4.108 1.569 7.137 6.275-.871 11.376.317 15.304 3.563zm-124.001 3.237.79 1.307c-7.592 14.92-6.419 26.487 3.52 34.703 1.31 1.082 3.535 2.272 6.677 3.568 3.141 1.296 5.367 2.486 6.676 3.568l1.173 1.624c-7.065-.218-13.735-2.92-20.01-8.107-5.756-4.758-8.306-10.65-7.652-17.678.655-7.028 3.597-13.356 8.826-18.985zm71.814 11.353c-5.756 1.736-10.466 4.118-14.131 7.147-4.702 3.887-8.428 9.237-11.179 16.05-2.75 6.813-3.211 12.704-1.383 17.673l-1.173.97c-6.802-13.831-4.052-25.831 8.251-36 6.802-5.622 13.34-7.568 19.615-5.84zm109.08 21.41 1.186 2.92c1.309.647 2.355 1.294 3.137 1.94 1.573 1.3 1.441 2.709-.395 4.227-1.046.864-2.287 1.349-3.724 1.455-1.437.105-3.206 1.026-5.305 2.761-3.401 2.811-6.147 3.353-8.239 1.623 0-.435-.782-2.599-2.347-6.493-1.054-2.164-.667-4.002 1.162-5.513 6.019-4.975 10.861-5.949 14.525-2.92zm-26.285 8.107-1.964.97c-3.145 2.6-2.491 5.952 1.964 10.056l-1.964.97-3.928 4.553c-2.347 1.941-4.439 2.152-6.275.634-.255-.211-.255-1.94 0-5.187-2.618 0-4.71-.646-6.275-1.94-4.183-3.457-3.792-6.374 1.174-8.75-.782-3.682-.651-5.955.395-6.82 2.092-1.728 4.772-1.674 8.041.164 3.27 1.837 6.213 3.621 8.832 5.35zm-52.978 10.056c.001 5.187-1.177 8.754-3.532 10.7-1.046.865-3.269 1.838-6.67 2.92-2.092 2.165-3.006 3.138-2.742 2.92-8.894 7.348-17.787 9.298-26.681 5.838l.383-.97c3.402-.64 6.675-1.19 9.82-1.62 6.275-1.29 11.245-3.456 14.909-6.485.782-.646 1.435-1.944 1.958-3.895.522-1.95 1.567-3.571 3.131-4.865 1.054-.87 4.196-2.385 9.424-4.543zm60.043 3.563c7.066 5.841 6.674 13.951-1.173 24.335-1.581-1.73-3.154-5.41-4.719-11.031-.263-1.511.585-3.727 2.545-6.647 1.96-2.92 2.812-5.139 2.557-6.657h.79zm-74.173 38.605c-9.157 3.67-18.964 1.19-29.423-7.45-8.11-6.71-11.38-12.88-9.807-18.505 3.138 5.625 6.798 10.175 10.981 13.635 8.111 6.7 17.527 10.81 28.249 12.32zm129.498-35.675a145.403 145.403 0 0 1 9.017 8.107c3.145 3.898 3.281 7.028.407 9.408-.79.65-1.84 1.08-3.149 1.29-.783 10.16.918 17.84 5.101 23.03l15.699 16.87c-2.618-.43-6.019-2.38-10.202-5.84l-5.892-4.87c-9.939-8.21-12.686-18.27-8.239-30.17-.782-.21-1.437-.53-1.964-.97-4.702-3.88-4.961-9.503-.778-16.855zm116.541 19.775c-1.573 1.3-4.579 3.14-9.017 5.52l1.556.65c6.02 4.54 8.506 12.43 7.461 23.67l-.383-.32c.255.21-3.15-.01-10.215-.65-7.065-.65-12.558-1.95-16.478-3.89-1.046 1.73-2.614 3.46-4.706 5.19-.263.22-1.968.98-5.113 2.27l-2.347-3.25-6.671-4.2c-1.045-.87-2.219-2.49-3.52-4.87-3.146.43-7.596.43-13.352-.01 1.572-2.16 1.966-5.19 1.179-9.08-.786-3.89-.261-6.59 1.575-8.11 3.137-2.59 7.255-2.1 12.352 1.46 5.098 3.57 8.433 4.7 10.005 3.4 1.046-.86.132-2.48-2.742-4.86l-1.174-.97c-6.019-4.97-6.674-9.41-1.963-13.301 2.874-2.376 6.275-3.887 10.202-4.534 5.493-.646 9.021-1.187 10.586-1.623.791 1.947 1.054 5.405.791 10.378 4.446-1.52 8.436-1.24 11.969.81a157.98 157.98 0 0 1 10.005 6.32zm-186.775 9.73c1.565 1.3 3.134 3.67 4.707 7.14l-21.975-10.38c-9.157-2.81-17.659-.97-25.506 5.52-3.138 2.59-5.365 5.51-6.682 8.75l-1.162.33c-.79-4.54 1.042-8.65 5.496-12.33 6.012-4.97 13.53-7.29 22.555-6.97 9.025.32 16.548 2.97 22.567 7.94zm28.249-14.26c6.275 5.62 10.002 13.35 11.179 23.19 1.178 9.83-1.503 17.45-8.041 22.86-5.237 4.32-10.341 4.98-15.31 1.95-4.97-3.03-9.674-6.16-14.113-9.41l3.916-.64c1.573-.01 5.365 2.04 11.376 6.15 3.665 2.16 7.457 1.62 11.377-1.62 9.939-8.21 9.416-21.84-1.569-40.87l1.185-1.61zm-1.173 34.7c-.263.22.128 1.19 1.173 2.91-3.408-1.51-8.641-3.23-15.699-5.17-3.145-.88-12.17-1.42-27.075-1.64-12.294-.21-20.665-2.15-25.112-5.83.263-.22 2.685.05 7.263.81 4.578.75 14.847 1.24 30.805 1.46 13.341.22 22.889 2.7 28.645 7.46zm-45.924 5.52a359.268 359.268 0 0 0-4.311 5.5l4.706 2.6c1.828 1.51 2.487 4.22 1.976 8.11-.264 5.4-.395 8.32-.396 8.76-2.363-.65-5.047-.59-8.053.16-3.005.76-5.554.92-7.646.48-1.054 3.89-1.712 5.95-1.976 6.17-1.045.86-3.071 1.78-6.077 2.75-3.006.98-5.422 2.44-7.251 4.38.256-1.51-1.445-3.78-5.101-6.81-2.355-1.94-3.794-4.1-4.317-6.48-.523-2.38-.916-3.9-1.18-4.55-5.492 1.52-11.248.65-17.268-2.6l1.174-.97c.264-.21.918-2.16 1.964-5.84 1.045-3.67 3.141-6.37 6.287-8.1.255.65-1.709-.76-5.892-4.22-.519-.43-1.108-1.13-1.766-2.1-.659-.98-1.12-1.57-1.383-1.79 3.672-1.73 7.6-3.56 11.783-5.51 4.183-1.95 7.844-1.62 10.981.97 1.31 1.08 2.291 2.97 2.946 5.68.654 2.71 1.373 4.38 2.155 5.03l3.15-1.3 4.311-6.17c2.874-2.38 6.275-2.49 10.203-.32a668.74 668.74 0 0 1 10.981 6.17zm142.443 8.75c1.828 1.52 2.614 3.03 2.359 4.55-1.829-.65-4.706-1.52-8.634-2.61-2.355.22-5.493.01-9.413-.65l2.347-1.94c4.184-3.46 8.63-3.24 13.341.65zm-22.37 2.91v.66c-1.565 1.29-6.534 1.08-14.909-.65a618.124 618.124 0 0 1-16.873-3.57c-4.965.21-11.635-.54-20.01-2.27l.395-.97c3.138-2.16 13.6-1.51 31.387 1.95-2.084-3.03-3.648-4.98-4.694-5.84-9.948-8.23-20.545-7.69-31.794 1.61-4.71 3.89-7.848 8-9.412 12.33l-1.186.33c-2.091-4.33 1.046-9.95 9.413-16.87 11.512-9.51 23.155-9.4 34.931.33 2.091 1.73 4.442 4.75 7.053 9.07 3.401 1.09 8.374 2.17 14.921 3.25l.778.64zm77.311 3.57c4.446 3.67 7.063 8.32 7.85 13.95.786 5.63-.785 10.27-4.713 13.94l-.778.01-2.551-6.65c-1.7-4.43-4.251-8.06-7.652-10.87-6.283-5.19-13.673-8.06-22.172-8.6-8.498-.53-15.757 1.69-21.776 6.66-2.355 1.95-4.71 5.19-7.065 9.73l-3.533 6.81-1.569.64-.778-.64c-.272-6.7 2.994-12.87 9.796-18.49 6.538-5.4 14.581-7.94 24.129-7.62 9.548.32 17.723 3.3 24.525 8.92 3.145 2.6 6.287 6.92 9.424 12.97 1.309-7.99-.914-14.37-6.67-19.13-2.882-2.38-7.985-4.65-15.31-6.81-7.324-2.16-12.164-4.22-14.52-6.17-4.183-3.45-5.62-6.59-4.311-9.4h.791c1.828 3.24 3.528 5.51 5.101 6.81 1.828 1.51 6.471 3.29 13.927 5.35 7.457 2.05 13.408 4.91 17.855 8.59zm-123.989 12.33c-.527 1.73-2.755 4-6.683 6.81l1.569 1.3c2.1 1.3 3.671 3.46 4.712 6.49a170.62 170.62 0 0 0 3.144 8.43h-11.784c-1.564 3.46-3.261 5.95-5.089 7.46-.79.65-2.297 1.46-4.52 2.44-2.224.97-3.854 2.1-4.892 3.4l-1.186-2.92c-7.329-6.06-10.338-10.49-9.029-13.31-5.493 1.09-10.33-.1-14.514-3.56.264.22-.918-1.19-3.544-4.22l-2.347-.65c2.355-1.51 6.41-3.56 12.166-6.16-1.572-6.05-1.968-10.7-1.185-13.94 2.099.86 4.85 1.3 8.25 1.29 3.401 0 5.756.55 7.066 1.63l.778 1.29c.519.87.387 2.6-.395 5.19-.782 2.59-.519 4.43.79 5.51 1.573 1.3 3.405 1.09 5.497-.64 2.091-1.73 2.351-4.75.778-9.08 2.874-1.51 6.014-1.19 9.419.97 3.404 2.16 7.071 2.92 10.999 2.27zm102.793 14.27c2.355 1.95 1.964 4.22-1.173 6.81-2.356 1.95-7.261 2.65-14.718 2.11-7.456-.54-12.494-1.89-15.112-4.06 5.764-1.29 9.955-3.02 12.574-5.18 6.011-4.97 10.322-6.38 12.933-4.22l.79 3.25c1.565-.44 3.133-.01 4.706 1.29zm37.674 15.56c-.264.22.259.87 1.568 1.95-3.393.22-13.727 3.36-31.003 9.42 1.054-2.17 2.235-3.79 3.545-4.87 3.4-2.81 9.152-5.19 17.256-7.14-6.275-4.33-15.819-11.79-28.633-22.38-1.309-1.08-3.47-2.54-6.484-4.38-3.014-1.84-5.171-3.29-6.473-4.37-.263-.22-.654-.76-1.173-1.62 4.71-.44 10.594 2.26 17.651 8.09 11.775 10.17 16.745 14.5 14.909 12.98l18.837 12.32zm-33.746-1.94c1.046.87.655 2.06-1.174 3.57.256-.21-1.053.44-3.927 1.96.782 1.94.914 3.12.395 3.55-1.31 1.08-4.71.33-10.203-2.27-5.492-2.59-9.285-4.75-11.376-6.48 4.71-.43 9.284-.98 13.723-1.62 6.802-.44 10.989-.01 12.562 1.29zm-40.811-8.43c.527.44.922 1.41 1.186 2.92 1.045.43 2.091 1.08 3.137 1.94 1.828 1.51 1.824 3.03-.012 4.54-.782.65-3.133.65-7.053.01l-7.844-1.95c-2.618 0-6.48 1.36-11.586 4.06-5.105 2.7-8.177 4.05-9.214 4.05l2.347-2.59c1.836-1.52 4.584-3.36 8.244-5.52 3.661-2.16 6.405-4 8.233-5.51 4.974-4.11 9.161-4.76 12.562-1.95zm84.376 15.24c-2.619 13.41-.004 23.36 7.844 29.85 6.275 5.18 16.082 8.53 29.422 10.04l.396 1.64c-12.032 2.59-22.366.32-31.004-6.82-4.447-3.68-8.109-9.41-10.987-17.19-2.878-7.78-2.225-13.4 1.958-16.86l1.186-.98 1.185.32zm5.485-5.18c8.111 10.16 12.298 15.35 12.561 15.57 1.828 1.51 4.704 3.45 8.628 5.83 3.924 2.38 6.8 4.33 8.628 5.84 7.329 6.06 12.562 18.17 15.7 36.33l-1.174-.33c-1.309-1.08-3.076-5.68-5.299-13.79-2.223-8.1-5.822-14.21-10.795-18.32-1.829-1.51-4.9-3.62-9.215-6.32-4.315-2.7-7.391-4.81-9.227-6.33-9.412-7.78-12.681-13.94-9.807-18.48zm-21.196 22.05c-1.565 2.6-3.788 6.39-6.67 11.35 3.664.87 7.851 1.74 12.562 2.61v1.28l-3.533 2.92c-.783.65-1.958 1.19-3.527 1.62-1.568.43-2.748.98-3.538 1.63 2.618 9.52 4.842 14.81 6.67 15.89-3.393 2.38-7.642 3.08-12.748 2.11-5.105-.97-9.095-2.86-11.969-5.68-1.309 2.38-3.009 6.16-5.101 11.35l-.79.65-1.174-1.62-9.807-6.8c-4.192-3.47-5.629-7.04-4.312-10.71-2.881-.66-5.105-1.41-6.67-2.27l-3.927-3.25c-1.31-1.94-2.751-3.56-4.323-4.86-.527-.43-2.882-.87-7.066-1.3 3.409-3.24 9.037-7.02 16.885-11.35-1.309-2.81-2.095-6.7-2.359-11.69 3.664.01 7.522-.04 11.574-.15 4.051-.11 7.255.81 9.61 2.76 2.091 1.73 3.01 5.3 2.754 10.71a9.026 9.026 0 0 1 1.964-2.28c3.664-3.03 12.163-4 25.495-2.92z" fill="#99B898" fill-opacity=".2"/><path d="m571.455 266.285 1.133.964c0 1.72 2.147 4.406 6.441 8.06a10.16 10.16 0 0 1-2.659 1.614l-.752.64 1.896 1.614c2.529 2.152 6.003 3.282 10.425 3.39 4.421.108 8.146 1.452 11.176 4.03l.751-.64c0-1.285-.377-3.116-1.133-5.491 3.538.007 7.455-1.174 11.749-3.543l-1.133-.964c-3.793-1.076-6.573-2.365-8.338-3.868a64.762 64.762 0 0 0 1.515-9.674l-5.319-8.384c-1.01.86-2.777 1.826-5.302 2.898-2.525 1.072-4.292 2.039-5.302 2.898-1.773 1.509-2.91 3.337-3.411 5.482l-11.737.974zm-24.63 6.771c1.511 2.152 2.139 3.12 1.885 2.903.508.433 4.679 2.047 12.511 4.842l1.503 1.929-4.162.964.763.649c2.775 2.363 6.437 3.544 10.985 3.543 0 2.152.759 3.875 2.278 5.167 1.01.86 4.04 1.719 9.089 2.578 5.049.86 8.333 1.719 9.852 2.579.755-1.076-1.519-3.871-6.822-8.385-4.04-3.438-8.079-5.156-12.119-5.157l-1.515-1.938c-1.264-1.076-3.16-1.614-5.689-1.614-.501-2.145-1.511-3.864-3.03-5.157-.509-.433-5.685-1.401-15.529-2.903zm43.571 13.226c.755 4.947 3.53 9.461 8.326 13.542 1.518 1.292 2.91 2.043 4.174 2.253.254-3.654-3.407-8.706-10.985-15.155l-1.515-.64zm22.352 10.638c-3.284 2.796-3.284 5.59 0 8.385 3.285 2.795 6.822 2.579 10.615-.65 2.521-2.145 2.012-4.723-1.526-7.735-3.03-2.578-6.059-2.578-9.089 0zm-90.172 5.157c.755 2.362 2.397 5.695 4.926 9.999-1.01.859-2.274 2.578-3.793 5.156.247 3.229.12 7.851-.381 13.867 7.577 3.444 14.523 2.48 20.837-2.894l4.545-5.166c3.538 1.725 6.695 2.693 9.47 2.903-.254-1.935-.123-4.409.393-7.42h1.503c5.057 1.719 9.224 1.827 12.501.324.007-2.578.073-5.104.196-7.577.124-2.474-.952-4.678-3.226-6.614-3.284-2.794-6.946-3.224-10.985-1.289-4.04 1.935-6.187 2.795-6.441 2.579-.501-.426.067-2.091 1.705-4.995 1.639-2.903 1.448-5.214-.572-6.933-1.511-1.285-2.899-1.607-4.163-.964l-.751-1.289c-2.275-1.935-4.549-1.935-6.823 0-.501.426-1.01 3.005-1.526 7.735-2.267-.21-4.348-.371-6.245-.482-1.896-.112-4.614.695-8.152 2.42l-3.018.64zm48.879 44.177c-4.047 3.445-4.179 6.777-.393 9.999 2.528 2.152 5.816.862 9.863-3.868 1.265.643 4.294 1.286 9.089 1.929 1.519-.859 3.857-2.094 7.014-3.705 3.157-1.611 6.253-1.557 9.291.162 4.286 2.795 6.683 4.193 7.192 4.192-1.773-2.361-3.542-4.293-5.307-5.796-7.833-6.666-14.401-7.742-19.705-3.228-6.822-3.654-12.504-3.549-17.044.315zm7.955-31.925c11.371 5.807 19.581 10.859 24.631 15.156 5.812 4.947 10.735 9.785 14.766 14.515-4.795-1.508-8.961-1.833-12.5-.974l.763.65c8.588 2.152 14.27 4.409 17.045 6.77 6.067 5.164 5.184 16.668-2.648 34.513-7.077 15.904-14.277 26.972-21.601 33.204-.763.65-2.405 1.621-4.926 2.913-2.02 1.286-3.28 2.359-3.781 3.218v.65c2.267 1.929 6.556.206 12.87-5.167 5.813-4.947 11.939-13.707 18.38-26.281 6.442-12.574 9.789-22.301 10.043-29.184.255-6.882-1.576-12.632-5.492-17.251a4173.264 4173.264 0 0 0-11.945-14.024c-.247-4.513-1.253-7.954-3.018-10.323-3.03-4.73-4.925-7.848-5.684-9.354-.759-1.506-.507-3.439.757-5.801 1.265-2.363 1.766-4.081 1.504-5.157l-3.4 1.614c-3.785 3.221-4.545 7.305-2.278 12.252.254 1.503 2.528 5.59 6.823 12.262-15.912-10.969-26.015-15.703-30.309-14.201zm-61.39 43.862c-1.01.86-2.147 2.254-3.411 4.183.509.433 1.648.543 3.417.329 1.769-.213 3.282.215 4.539 1.285l-1.515 1.289c-2.783 2.368-5.94 3.336-9.471 2.903 1.264 1.942 2.147 3.126 2.648 3.553 1.264 1.076 3.538 2.152 6.823 3.227l-4.163 3.543c-2.783 2.369-2.91 6.564-.382 12.587 1.01-.439 3.916-.977 8.719-1.614 3.03-.439 5.427-2.053 7.193-4.842l1.144.325.185 1.447c.124.964.69 1.876 1.7 2.736 1.018.866 3.292 2.158 6.823 3.877.254-1.502 1.518-3.438 3.792-5.806 2.275-2.369 3.157-5.055 2.649-8.06 4.794.643 8.583.535 11.366-.325a125.415 125.415 0 0 0 8.338-2.903l-3.781-1.939c-.756-.643-1.702-2.416-2.839-5.319s-2.466-5.001-3.984-6.293c-3.284-2.795-7.324-1.503-12.118 3.877l-.382-.325.751-2.568c3.03-3.877 1.893-8.073-3.411-12.587-2.528-2.152-5.307-3.224-8.337-3.218 0 1.719-.505 4.084-1.515 7.095-6.059-.865-10.985.316-14.778 3.543zm119.74 3.218-.763 1.299c7.331 14.834 6.198 26.335-3.4 34.503-1.264 1.076-3.413 2.259-6.447 3.548-3.033 1.289-5.182 2.472-6.446 3.548l-1.133 1.614c6.822-.217 13.263-2.903 19.322-8.06 5.558-4.73 8.021-10.589 7.389-17.576-.632-6.988-3.473-13.279-8.522-18.876zm-69.346 11.288c5.558 1.726 10.106 4.094 13.645 7.105 4.54 3.865 8.138 9.184 10.794 15.958 2.656 6.773 3.101 12.631 1.336 17.571l1.133.964c6.568-13.751 3.912-25.681-7.967-35.792-6.569-5.589-12.882-7.525-18.941-5.806zm-105.332 21.286-1.145 2.903c-1.264.644-2.274 1.287-3.029 1.929-1.519 1.293-1.392 2.694.381 4.203 1.01.859 2.209 1.341 3.596 1.446 1.388.105 3.095 1.021 5.123 2.746 3.284 2.795 5.936 3.333 7.956 1.614-.001-.433.755-2.585 2.266-6.456 1.017-2.152.644-3.979-1.122-5.482-5.812-4.946-10.488-5.914-14.026-2.903zm25.382 8.06 1.896.965c3.037 2.585 2.405 5.918-1.896 9.998l1.896.965 3.793 4.527c2.266 1.929 4.286 2.139 6.059.629.247-.209.247-1.928 0-5.156 2.529 0 4.549-.643 6.06-1.929 4.039-3.438 3.661-6.338-1.134-8.7.756-3.66.628-5.921-.381-6.78-2.02-1.719-4.608-1.665-7.765.162s-6 3.6-8.528 5.319zm51.157 9.999c0 5.157 1.136 8.703 3.411 10.638 1.01.86 3.157 1.827 6.441 2.903 2.019 2.152 2.902 3.12 2.648 2.903 8.587 7.309 17.175 9.245 25.763 5.807l-.37-.965a186.19 186.19 0 0 0-9.482-1.614c-6.059-1.285-10.858-3.434-14.396-6.446-.756-.642-1.386-1.933-1.891-3.872-.505-1.939-1.513-3.551-3.024-4.837-1.018-.866-4.051-2.372-9.1-4.517zm-57.98 3.543c-6.822 5.806-6.445 13.869 1.133 24.189 1.527-1.719 3.046-5.373 4.557-10.963.254-1.502-.565-3.705-2.458-6.608-1.892-2.903-2.715-5.109-2.469-6.618h-.763zm71.624 38.38c8.843 3.655 18.313 1.184 28.412-7.41 7.832-6.666 10.989-12.797 9.471-18.393-3.03 5.596-6.565 10.113-10.604 13.551-7.833 6.666-16.925 10.75-27.279 12.252zm-125.047-35.467a141.5 141.5 0 0 0-8.707 8.059c-3.038 3.871-3.169 6.988-.394 9.35.764.649 1.777 1.079 3.042 1.289.755 10.103-.887 17.734-4.926 22.89l-15.16 16.779c2.528-.433 5.812-2.368 9.852-5.806l5.689-4.842c9.598-8.168 12.25-18.166 7.956-29.995.755-.21 1.387-.532 1.896-.965 4.541-3.864 4.791-9.451.752-16.759zM315.682 438.16c1.519 1.293 4.421 3.12 8.707 5.482l-1.503.649c-5.812 4.514-8.214 12.358-7.204 23.53l.37-.315c-.246.21 3.041-.006 9.864-.649 6.822-.643 12.126-1.932 15.911-3.868 1.01 1.726 2.525 3.448 4.544 5.167.255.217 1.901.968 4.938 2.254l2.267-3.228 6.441-4.183c1.009-.859 2.143-2.473 3.399-4.842 3.038.433 7.335.43 12.893-.009-1.518-2.146-1.898-5.152-1.139-9.02.76-3.868.253-6.556-1.52-8.065-3.03-2.578-7.006-2.094-11.928 1.452-4.922 3.546-8.142 4.673-9.661 3.38-1.01-.859-.127-2.47 2.648-4.832l1.133-.964c5.813-4.947 6.445-9.356 1.897-13.227-2.776-2.361-6.06-3.864-9.853-4.507-5.303-.643-8.711-1.181-10.222-1.614-.763 1.936-1.017 5.374-.763 10.314-4.294-1.502-8.146-1.232-11.558.812a150.987 150.987 0 0 0-9.661 6.283zm180.356 9.674c-1.511 1.286-3.026 3.651-4.545 7.096l21.219-10.324c8.842-2.788 17.053-.958 24.631 5.491 3.029 2.579 5.18 5.479 6.452 8.7l1.122.325c.763-4.507-1.007-8.591-5.308-12.252-5.805-4.94-13.065-7.252-21.78-6.933-8.715.318-15.979 2.95-21.791 7.897zm-27.278-14.181c-6.06 5.59-9.658 13.274-10.795 23.053-1.137 9.778 1.451 17.355 7.765 22.728 5.057 4.304 9.985 4.952 14.784 1.943a193.1 193.1 0 0 0 13.627-9.353l-3.781-.64c-1.519-.007-5.18 2.034-10.985 6.121-3.539 2.145-7.2 1.607-10.985-1.614-9.598-8.168-9.093-21.713 1.514-40.634l-1.144-1.604zm1.133 34.503c.254.217-.124 1.181-1.133 2.893 3.291-1.502 8.344-3.218 15.159-5.147 3.038-.866 11.753-1.407 26.145-1.623 11.872-.21 19.955-2.142 24.249-5.797-.254-.216-2.592.051-7.013.802-4.421.751-14.337 1.235-29.747 1.452-12.882.216-22.102 2.69-27.66 7.42zm44.346 5.481a416.018 416.018 0 0 1 4.163 5.472l-4.545 2.588c-1.765 1.503-2.401 4.19-1.908 8.06.255 5.374.382 8.277.382 8.71 2.282-.643 4.874-.589 7.776.162 2.903.751 5.364.91 7.383.477 1.018 3.871 1.654 5.915 1.909 6.131 1.009.86 2.965 1.773 5.868 2.741 2.903.968 5.236 2.419 7.002 4.355-.247-1.509 1.395-3.766 4.926-6.771 2.274-1.935 3.663-4.086 4.168-6.451.505-2.365.885-3.872 1.139-4.522 5.304 1.509 10.862.65 16.675-2.578l-1.133-.965c-.255-.216-.887-2.151-1.897-5.806-1.009-3.654-3.033-6.341-6.071-8.06-.246.643 1.65-.754 5.69-4.192.501-.426 1.069-1.123 1.705-2.091.636-.968 1.081-1.56 1.336-1.777a2814.591 2814.591 0 0 0-11.379-5.481c-4.039-1.936-7.574-1.614-10.603.964-1.265 1.076-2.213 2.959-2.845 5.649-.632 2.69-1.326 4.357-2.081 4.999l-3.042-1.289-4.163-6.141c-2.775-2.361-6.059-2.466-9.852-.315a709.078 709.078 0 0 0-10.603 6.131zm-137.548 8.71c-1.765 1.502-2.525 3.008-2.278 4.517 1.766-.649 4.545-1.512 8.337-2.588 2.275.216 5.304 0 9.089-.65l-2.266-1.929c-4.04-3.437-8.334-3.221-12.882.65zm21.601 2.893v.65c1.511 1.286 6.309 1.072 14.396-.64a586.978 586.978 0 0 0 16.293-3.553c4.795.21 11.236-.541 19.323-2.253l-.382-.975c-3.03-2.145-13.132-1.499-30.308 1.939 2.012-3.011 3.523-4.947 4.533-5.806 9.606-8.175 19.839-7.64 30.701 1.604 4.548 3.871 7.578 7.958 9.089 12.262l1.145.325c2.019-4.304-1.01-9.894-9.089-16.769-11.116-9.461-22.36-9.353-33.731.324-2.02 1.719-4.29 4.727-6.811 9.024-3.284 1.077-8.086 2.153-14.408 3.228l-.751.64zm-74.654 3.543c-4.294 3.654-6.821 8.278-7.58 13.871-.76 5.593.757 10.213 4.55 13.861l.752.01 2.463-6.613c1.642-4.409 4.105-8.011 7.389-10.806 6.067-5.163 13.204-8.012 21.41-8.547 8.206-.535 15.215 1.672 21.028 6.618 2.274 1.936 4.548 5.161 6.822 9.674l3.411 6.771 1.515.64.752-.64c.262-6.666-2.891-12.793-9.459-18.383-6.314-5.373-14.08-7.899-23.3-7.578-9.221.321-17.114 3.277-23.682 8.867-3.038 2.585-6.071 6.885-9.101 12.902-1.264-7.952.883-14.293 6.441-19.023 2.783-2.369 7.711-4.627 14.784-6.776s11.746-4.19 14.021-6.126c4.039-3.438 5.427-6.554 4.163-9.349h-.764c-1.765 3.221-3.407 5.478-4.926 6.771-1.765 1.502-6.248 3.274-13.448 5.314s-12.947 4.888-17.241 8.542zm119.728 12.262c.509 1.719 2.66 3.976 6.453 6.771l-1.515 1.289c-2.028 1.292-3.545 3.443-4.551 6.451a169.758 169.758 0 0 1-3.035 8.389h11.379c1.51 3.438 3.149 5.908 4.914 7.411.763.649 2.218 1.458 4.365 2.425 2.147.968 3.722 2.095 4.724 3.381l1.145-2.903c7.077-6.023 9.983-10.432 8.719-13.227 5.303 1.076 9.975-.105 14.015-3.543-.255.217.886-1.18 3.422-4.192l2.267-.649c-2.274-1.503-6.191-3.543-11.749-6.122 1.519-6.016 1.9-10.638 1.145-13.866-2.028.86-4.683 1.29-7.967 1.289-3.284 0-5.558.539-6.823 1.614l-.751 1.29c-.501.859-.374 2.578.381 5.156.756 2.579.501 4.406-.763 5.482-1.519 1.292-3.288 1.079-5.308-.64-2.019-1.719-2.27-4.727-.751-9.024-2.775-1.509-5.807-1.189-9.095.959-3.288 2.149-6.828 2.902-10.621 2.259zm-99.261 14.191c-2.274 1.935-1.896 4.192 1.133 6.771 2.275 1.935 7.012 2.634 14.212 2.096 7.2-.538 12.064-1.883 14.593-4.035-5.566-1.286-9.613-3.005-12.142-5.157-5.804-4.94-9.967-6.338-12.488-4.192l-.763 3.228c-1.511-.433-3.026-.004-4.545 1.289zm-36.379 15.47c.255.217-.25.863-1.514 1.939 3.276.216 13.255 3.336 29.937 9.359-1.017-2.152-2.158-3.766-3.422-4.842-3.284-2.795-8.839-5.16-16.663-7.096 6.059-4.303 15.275-11.72 27.648-22.25 1.264-1.076 3.351-2.528 6.261-4.355 2.911-1.827 4.994-3.275 6.251-4.345.254-.216.632-.754 1.133-1.614-4.548-.433-10.23 2.251-17.045 8.05-11.37 10.11-16.169 14.411-14.396 12.902l-18.19 12.252zm32.586-1.929c-1.009.86-.632 2.041 1.134 3.543-.247-.21 1.017.44 3.792 1.949-.755 1.929-.882 3.106-.381 3.533 1.264 1.076 4.548.324 9.852-2.254s8.965-4.727 10.985-6.446a247.516 247.516 0 0 1-13.252-1.614c-6.567-.433-10.611-.003-12.13 1.289zm39.409-8.384c-.509.433-.891 1.4-1.145 2.903-1.01.426-2.02 1.069-3.03 1.929-1.765 1.502-1.761 3.008.012 4.517.755.643 3.026.646 6.811.01l7.574-1.939c2.528 0 6.258 1.343 11.187 4.03 4.93 2.686 7.896 4.03 8.899 4.03l-2.267-2.579c-1.773-1.509-4.427-3.337-7.961-5.486-3.535-2.149-6.185-3.974-7.95-5.477-4.803-4.087-8.846-4.733-12.13-1.938zm-81.477 15.155c2.529 13.331.004 23.222-7.574 29.671-6.059 5.157-15.529 8.486-28.411 9.989l-.382 1.623c11.618 2.579 21.597.319 29.938-6.78 4.294-3.654 7.831-9.351 10.61-17.089 2.779-7.739 2.148-13.327-1.891-16.765l-1.145-.974-1.145.325zm-5.296-5.157c-7.832 10.104-11.875 15.264-12.13 15.48-1.765 1.503-4.542 3.437-8.331 5.802-3.789 2.365-6.566 4.299-8.332 5.801-7.077 6.023-12.13 18.065-15.16 36.127l1.134-.335c1.264-1.076 2.97-5.644 5.116-13.704 2.147-8.06 5.622-14.133 10.425-18.22 1.765-1.503 4.732-3.597 8.898-6.284 4.167-2.687 7.137-4.784 8.91-6.293 9.089-7.736 12.246-13.86 9.47-18.374zm20.468 21.926c1.511 2.585 3.658 6.348 6.441 11.288-3.539.86-7.582 1.722-12.131 2.588v1.279l3.412 2.904c.755.643 1.89 1.179 3.405 1.609 1.515.429 2.654.969 3.417 1.619-2.528 9.46-4.675 14.725-6.441 15.795 3.277 2.368 7.38 3.068 12.309 2.101 4.93-.968 8.783-2.849 11.558-5.644 1.265 2.362 2.907 6.121 4.926 11.278l.763.649 1.134-1.614 9.47-6.761c4.047-3.444 5.435-6.993 4.163-10.648 2.783-.649 4.93-1.4 6.441-2.253l3.793-3.228c1.264-1.929 2.655-3.54 4.174-4.832.509-.433 2.783-.866 6.823-1.299-3.292-3.221-8.727-6.981-16.305-11.278 1.264-2.795 2.024-6.669 2.278-11.622-3.538.006-7.264-.045-11.176-.153s-7.006.805-9.28 2.741c-2.019 1.719-2.906 5.268-2.659 10.648a8.807 8.807 0 0 0-1.897-2.264c-3.538-3.011-11.744-3.979-24.618-2.903zm258.039-5.825 1.133.965c0 1.719 2.147 4.406 6.441 8.06a10.16 10.16 0 0 1-2.659 1.614l-.752.639 1.896 1.614c2.529 2.153 6.003 3.283 10.425 3.391 4.421.108 8.146 1.451 11.176 4.03l.751-.64c0-1.286-.377-3.116-1.133-5.492 3.538.007 7.455-1.174 11.749-3.542l-1.133-.965c-3.793-1.075-6.573-2.365-8.338-3.867a64.782 64.782 0 0 0 1.515-9.674l-5.319-8.385c-1.01.86-2.777 1.826-5.302 2.898-2.525 1.073-4.292 2.04-5.302 2.899-1.773 1.509-2.91 3.336-3.411 5.481l-11.737.974zm-24.63 6.771c1.511 2.152 2.139 3.12 1.885 2.903.508.434 4.679 2.047 12.511 4.842l1.503 1.929-4.162.964.763.65c2.775 2.362 6.437 3.543 10.985 3.543 0 2.152.759 3.874 2.278 5.166 1.01.86 4.04 1.72 9.089 2.579 5.049.859 8.333 1.719 9.852 2.578.755-1.076-1.519-3.871-6.822-8.385-4.04-3.437-8.079-5.156-12.119-5.156l-1.515-1.939c-1.264-1.076-3.16-1.614-5.689-1.614-.501-2.145-1.511-3.864-3.03-5.157-.509-.432-5.685-1.4-15.529-2.903zm43.571 13.227c.755 4.947 3.53 9.46 8.326 13.541 1.518 1.293 2.91 2.044 4.174 2.253.254-3.653-3.407-8.705-10.985-15.155l-1.515-.639zm22.352 10.638c-3.284 2.795-3.284 5.59 0 8.384 3.285 2.795 6.822 2.579 10.615-.649 2.521-2.145 2.012-4.724-1.526-7.735-3.03-2.578-6.059-2.578-9.089 0zm-90.172 5.157c.755 2.362 2.397 5.695 4.926 9.998-1.01.86-2.274 2.579-3.793 5.157.247 3.228.12 7.85-.381 13.866 7.577 3.445 14.523 2.48 20.837-2.893l4.545-5.167c3.538 1.726 6.695 2.694 9.47 2.903-.254-1.935-.123-4.408.393-7.42h1.503c5.057 1.719 9.224 1.828 12.501.325.007-2.578.073-5.104.196-7.578.124-2.473-.952-4.677-3.226-6.613-3.284-2.795-6.946-3.224-10.985-1.289-4.04 1.935-6.187 2.795-6.441 2.578-.501-.426.067-2.091 1.705-4.994 1.639-2.904 1.448-5.214-.572-6.933-1.511-1.286-2.899-1.607-4.163-.965l-.751-1.289c-2.275-1.935-4.549-1.935-6.823 0-.501.427-1.01 3.005-1.526 7.735-2.267-.209-4.348-.37-6.245-.482-1.896-.112-4.614.696-8.152 2.421l-3.018.64zm48.879 44.176c-4.047 3.445-4.179 6.778-.393 9.999 2.528 2.152 5.816.863 9.863-3.868 1.265.644 4.294 1.287 9.089 1.929 1.519-.859 3.857-2.094 7.014-3.705 3.157-1.611 6.253-1.556 9.291.162 4.286 2.796 6.683 4.193 7.192 4.193-1.773-2.362-3.542-4.294-5.307-5.797-7.833-6.665-14.401-7.741-19.705-3.227-6.822-3.655-12.504-3.55-17.044.314zm7.955-31.924c11.371 5.806 19.581 10.858 24.631 15.155 5.812 4.947 10.735 9.786 14.766 14.516-4.795-1.509-8.961-1.834-12.5-.974l.763.649c8.588 2.152 14.27 4.409 17.045 6.771 6.067 5.163 5.184 16.667-2.648 34.512-7.077 15.904-14.277 26.972-21.601 33.205-.763.649-2.405 1.62-4.926 2.912-2.02 1.287-3.28 2.359-3.781 3.218v.65c2.267 1.929 6.556.207 12.87-5.167 5.813-4.946 11.939-13.706 18.38-26.28 6.442-12.574 9.789-22.302 10.043-29.184.255-6.883-1.576-12.633-5.492-17.252a4076.3 4076.3 0 0 0-11.945-14.023c-.247-4.514-1.253-7.955-3.018-10.324-3.03-4.73-4.925-7.848-5.684-9.354-.759-1.506-.507-3.439.757-5.801 1.265-2.362 1.766-4.08 1.504-5.157l-3.4 1.614c-3.785 3.222-4.545 7.306-2.278 12.253.254 1.502 2.528 5.59 6.823 12.262-15.912-10.97-26.015-15.703-30.309-14.201zm-61.39 43.862c-1.01.859-2.147 2.253-3.411 4.182.509.433 1.648.543 3.417.33 1.769-.214 3.282.215 4.539 1.284l-1.515 1.289c-2.783 2.369-5.94 3.337-9.471 2.903 1.264 1.943 2.147 3.127 2.648 3.553 1.264 1.076 3.538 2.152 6.823 3.228l-4.163 3.543c-2.783 2.368-2.91 6.564-.382 12.587 1.01-.44 3.916-.978 8.719-1.615 3.03-.439 5.427-2.053 7.193-4.841l1.144.325.185 1.446c.124.965.69 1.877 1.7 2.736 1.018.866 3.292 2.159 6.823 3.877.254-1.502 1.518-3.437 3.792-5.806 2.275-2.368 3.157-5.055 2.649-8.06 4.794.643 8.583.535 11.366-.324 2.783-.86 5.562-1.827 8.338-2.904l-3.781-1.938c-.756-.643-1.702-2.416-2.839-5.32-1.137-2.903-2.466-5-3.984-6.293-3.284-2.794-7.324-1.502-12.118 3.878l-.382-.325.751-2.569c3.03-3.877 1.893-8.073-3.411-12.587-2.528-2.151-5.307-3.224-8.337-3.218 0 1.72-.505 4.085-1.515 7.096-6.059-.866-10.985.315-14.778 3.543zm119.74 3.218-.763 1.299c7.331 14.834 6.198 26.335-3.4 34.503-1.264 1.076-3.413 2.259-6.447 3.547-3.033 1.289-5.182 2.472-6.446 3.548l-1.133 1.614c6.822-.216 13.263-2.903 19.322-8.06 5.558-4.73 8.021-10.589 7.389-17.576-.632-6.987-3.473-13.279-8.522-18.875zm-69.346 11.287c5.558 1.726 10.106 4.095 13.645 7.106 4.54 3.864 8.138 9.183 10.794 15.957 2.656 6.774 3.101 12.631 1.336 17.571l1.133.965c6.568-13.751 3.912-25.682-7.967-35.792-6.569-5.59-12.882-7.525-18.941-5.807zm-105.332 21.287-1.145 2.903c-1.264.643-2.274 1.286-3.029 1.929-1.519 1.293-1.392 2.693.381 4.202 1.01.86 2.209 1.342 3.596 1.447 1.388.105 3.095 1.02 5.123 2.745 3.284 2.795 5.936 3.333 7.956 1.614-.001-.433.755-2.584 2.266-6.455 1.017-2.152.644-3.979-1.122-5.482-5.812-4.947-10.488-5.914-14.026-2.903zm25.382 8.06 1.896.964c3.037 2.585 2.405 5.918-1.896 9.999l1.896.964 3.793 4.527c2.266 1.929 4.286 2.139 6.059.63.247-.21.247-1.929 0-5.157 2.529 0 4.549-.643 6.06-1.929 4.039-3.437 3.661-6.337-1.134-8.699.756-3.661.628-5.921-.381-6.781-2.02-1.718-4.608-1.664-7.765.163-3.157 1.826-6 3.6-8.528 5.319zm51.157 9.998c0 5.157 1.136 8.703 3.411 10.639 1.01.859 3.157 1.827 6.441 2.903 2.019 2.152 2.902 3.12 2.648 2.903 8.587 7.309 17.175 9.244 25.763 5.806l-.37-.964a186.19 186.19 0 0 0-9.482-1.614c-6.059-1.286-10.858-3.435-14.396-6.446-.756-.643-1.386-1.934-1.891-3.873-.505-1.939-1.513-3.551-3.024-4.837-1.018-.866-4.051-2.371-9.1-4.517zm-57.98 3.543c-6.822 5.807-6.445 13.87 1.133 24.19 1.527-1.719 3.046-5.374 4.557-10.963.254-1.503-.565-3.705-2.458-6.609-1.892-2.903-2.715-5.109-2.469-6.618h-.763zm71.624 38.38c8.843 3.655 18.313 1.185 28.412-7.41 7.832-6.665 10.989-12.796 9.471-18.393-3.03 5.597-6.565 10.114-10.604 13.551-7.833 6.666-16.925 10.75-27.279 12.252zm-125.047-35.467a141.514 141.514 0 0 0-8.707 8.06c-3.038 3.871-3.169 6.987-.394 9.349.764.65 1.777 1.079 3.042 1.289.755 10.104-.887 17.734-4.926 22.891l-15.16 16.779c2.528-.433 5.812-2.368 9.852-5.807l5.689-4.841c9.598-8.168 12.25-18.167 7.956-29.996.755-.21 1.387-.531 1.896-.964 4.541-3.865 4.791-9.451.752-16.76zm-112.536 19.663c1.519 1.292 4.421 3.119 8.707 5.481l-1.503.65c-5.812 4.514-8.214 12.357-7.204 23.53l.37-.315c-.246.21 3.041-.007 9.864-.65 6.822-.643 12.126-1.932 15.911-3.867 1.01 1.725 2.525 3.448 4.544 5.166.255.217 1.901.968 4.938 2.254l2.267-3.228 6.441-4.182c1.009-.86 2.143-2.474 3.399-4.842 3.038.433 7.335.43 12.893-.01-1.518-2.145-1.898-5.152-1.139-9.019.76-3.868.253-6.556-1.52-8.065-3.03-2.578-7.006-2.094-11.928 1.451-4.922 3.546-8.142 4.673-9.661 3.381-1.01-.86-.127-2.47 2.648-4.832l1.133-.965c5.813-4.946 6.445-9.355 1.897-13.226-2.776-2.362-6.06-3.864-9.853-4.507-5.303-.643-8.711-1.181-10.222-1.614-.763 1.935-1.017 5.373-.763 10.313-4.294-1.502-8.146-1.231-11.558.812a151.424 151.424 0 0 0-9.661 6.284zm180.356 9.673c-1.511 1.287-3.026 3.652-4.545 7.096l21.219-10.324c8.842-2.788 17.053-.957 24.631 5.492 3.029 2.578 5.18 5.478 6.452 8.699l1.122.325c.763-4.507-1.007-8.591-5.308-12.252-5.805-4.94-13.065-7.251-21.78-6.933-8.715.318-15.979 2.951-21.791 7.897zM468.76 713.86c-6.06 5.59-9.658 13.275-10.795 23.053-1.137 9.779 1.451 17.355 7.765 22.728 5.057 4.304 9.985 4.952 14.784 1.944a193.107 193.107 0 0 0 13.627-9.354l-3.781-.64c-1.519-.006-5.18 2.034-10.985 6.121-3.539 2.146-7.2 1.608-10.985-1.613-9.598-8.168-9.093-21.713 1.514-40.635l-1.144-1.604zm1.133 34.503c.254.217-.124 1.182-1.133 2.894 3.291-1.503 8.344-3.218 15.159-5.147 3.038-.866 11.753-1.407 26.145-1.624 11.872-.21 19.955-2.142 24.249-5.797-.254-.216-2.592.052-7.013.803-4.421.751-14.337 1.235-29.747 1.451-12.882.217-22.102 2.69-27.66 7.42zm44.346 5.482a416.018 416.018 0 0 1 4.163 5.472l-4.545 2.588c-1.765 1.502-2.401 4.189-1.908 8.06.255 5.373.382 8.276.382 8.709 2.282-.643 4.874-.589 7.776.162 2.903.751 5.364.911 7.383.478 1.018 3.871 1.654 5.914 1.909 6.131 1.009.859 2.965 1.773 5.868 2.741 2.903.967 5.236 2.419 7.002 4.354-.247-1.509 1.395-3.766 4.926-6.77 2.274-1.936 3.663-4.086 4.168-6.451.505-2.366.885-3.873 1.139-4.522 5.304 1.509 10.862.649 16.675-2.579l-1.133-.964c-.255-.217-.887-2.152-1.897-5.806-1.009-3.655-3.033-6.341-6.071-8.06-.246.643 1.65-.755 5.69-4.193.501-.426 1.069-1.123 1.705-2.091.636-.968 1.081-1.559 1.336-1.776a2809.06 2809.06 0 0 0-11.379-5.482c-4.039-1.935-7.574-1.614-10.603.965-1.265 1.076-2.213 2.959-2.845 5.649-.632 2.689-1.326 4.356-2.081 4.999l-3.042-1.289-4.163-6.141c-2.775-2.362-6.059-2.467-9.852-.315a709.078 709.078 0 0 0-10.603 6.131zm-137.548 8.709c-1.765 1.503-2.525 3.009-2.278 4.517 1.766-.649 4.545-1.512 8.337-2.588 2.275.217 5.304 0 9.089-.649l-2.266-1.929c-4.04-3.438-8.334-3.221-12.882.649zm21.601 2.894v.649c1.511 1.286 6.309 1.073 14.396-.64a586.899 586.899 0 0 0 16.293-3.552c4.795.21 11.236-.541 19.323-2.254l-.382-.974c-3.03-2.145-13.132-1.499-30.308 1.939 2.012-3.012 3.523-4.947 4.533-5.807 9.606-8.174 19.839-7.64 30.701 1.604 4.548 3.871 7.578 7.959 9.089 12.262l1.145.325c2.019-4.304-1.01-9.893-9.089-16.769-11.116-9.46-22.36-9.352-33.731.325-2.02 1.719-4.29 4.727-6.811 9.024-3.284 1.076-8.086 2.152-14.408 3.228l-.751.64zm-74.654 3.542c-4.294 3.655-6.821 8.279-7.58 13.871-.76 5.593.757 10.214 4.55 13.862l.752.009 2.463-6.613c1.642-4.408 4.105-8.01 7.389-10.805 6.067-5.163 13.204-8.012 21.41-8.547 8.206-.535 15.215 1.671 21.028 6.618 2.274 1.935 4.548 5.16 6.822 9.674l3.411 6.77 1.515.64.752-.64c.262-6.665-2.891-12.793-9.459-18.383-6.314-5.373-14.08-7.899-23.3-7.578-9.221.322-17.114 3.278-23.682 8.867-3.038 2.585-6.071 6.886-9.101 12.902-1.264-7.951.883-14.292 6.441-19.023 2.783-2.368 7.711-4.627 14.784-6.775 7.073-2.149 11.746-4.191 14.021-6.127 4.039-3.437 5.427-6.554 4.163-9.349h-.764c-1.765 3.222-3.407 5.479-4.926 6.771-1.765 1.503-6.248 3.274-13.448 5.314-7.2 2.041-12.947 4.888-17.241 8.542zm119.728 12.262c.509 1.719 2.66 3.976 6.453 6.771l-1.515 1.289c-2.028 1.293-3.545 3.443-4.551 6.451a169.81 169.81 0 0 1-3.035 8.39h11.379c1.51 3.438 3.149 5.908 4.914 7.41.763.65 2.218 1.458 4.365 2.426 2.147.967 3.722 2.095 4.724 3.38l1.145-2.903c7.077-6.023 9.983-10.431 8.719-13.226 5.303 1.076 9.975-.105 14.015-3.543-.255.217.886-1.181 3.422-4.192l2.267-.65c-2.274-1.502-6.191-3.543-11.749-6.121 1.519-6.016 1.9-10.638 1.145-13.866-2.028.859-4.683 1.289-7.967 1.289s-5.558.538-6.823 1.614l-.751 1.289c-.501.86-.374 2.579.381 5.157.756 2.578.501 4.405-.763 5.481-1.519 1.293-3.288 1.08-5.308-.639-2.019-1.719-2.27-4.727-.751-9.025-2.775-1.508-5.807-1.189-9.095.96-3.288 2.148-6.828 2.901-10.621 2.258zm-99.261 14.191c-2.274 1.936-1.896 4.193 1.133 6.771 2.275 1.936 7.012 2.634 14.212 2.096 7.2-.538 12.064-1.883 14.593-4.035-5.566-1.286-9.613-3.004-12.142-5.156-5.804-4.941-9.967-6.338-12.488-4.193l-.763 3.228c-1.511-.433-3.026-.003-4.545 1.289zm-36.379 15.471c.255.216-.25.862-1.514 1.938 3.276.217 13.255 3.337 29.937 9.359-1.017-2.152-2.158-3.766-3.422-4.842-3.284-2.794-8.839-5.16-16.663-7.095 6.059-4.304 15.275-11.721 27.648-22.251 1.264-1.076 3.351-2.527 6.261-4.355 2.911-1.827 4.994-3.275 6.251-4.344.254-.217.632-.755 1.133-1.614-4.548-.433-10.23 2.25-17.045 8.05-11.37 10.11-16.169 14.41-14.396 12.901l-18.19 12.253zm32.586-1.929c-1.009.859-.632 2.04 1.134 3.542-.247-.209 1.017.44 3.792 1.949-.755 1.929-.882 3.107-.381 3.533 1.264 1.076 4.548.325 9.852-2.254 5.304-2.578 8.965-4.727 10.985-6.446-4.548-.433-8.965-.97-13.252-1.614-6.567-.432-10.611-.003-12.13 1.29zm39.409-8.385c-.509.433-.891 1.401-1.145 2.903-1.01.427-2.02 1.07-3.03 1.929-1.765 1.503-1.761 3.008.012 4.517.755.643 3.026.646 6.811.01l7.574-1.939c2.528 0 6.258 1.344 11.187 4.03 4.93 2.687 7.896 4.03 8.899 4.03l-2.267-2.578c-1.773-1.509-4.427-3.338-7.961-5.487-3.535-2.148-6.185-3.974-7.95-5.476-4.803-4.087-8.846-4.734-12.13-1.939zm-81.477 15.155c2.529 13.332.004 23.222-7.574 29.671-6.059 5.157-15.529 8.487-28.411 9.989l-.382 1.624c11.618 2.578 21.597.318 29.938-6.781 4.294-3.654 7.831-9.35 10.61-17.089 2.779-7.738 2.148-13.326-1.891-16.764l-1.145-.974-1.145.324zm-5.296-5.156c-7.832 10.103-11.875 15.263-12.13 15.48-1.765 1.502-4.542 3.436-8.331 5.801-3.789 2.365-6.566 4.299-8.332 5.801-7.077 6.023-12.13 18.065-15.16 36.127l1.134-.334c1.264-1.076 2.97-5.644 5.116-13.704 2.147-8.06 5.622-14.134 10.425-18.221 1.765-1.502 4.732-3.597 8.898-6.284 4.167-2.686 7.137-4.784 8.91-6.293 9.089-7.735 12.246-13.859 9.47-18.373zm20.468 21.926c1.511 2.585 3.658 6.347 6.441 11.287-3.539.86-7.582 1.723-12.131 2.589v1.279l3.412 2.903c.755.643 1.89 1.179 3.405 1.609 1.515.43 2.654.97 3.417 1.619-2.528 9.461-4.675 14.726-6.441 15.795 3.277 2.368 7.38 3.069 12.309 2.101 4.93-.968 8.783-2.849 11.558-5.644 1.265 2.362 2.907 6.121 4.926 11.278l.763.65 1.134-1.614 9.47-6.761c4.047-3.445 5.435-6.994 4.163-10.648 2.783-.65 4.93-1.401 6.441-2.254l3.793-3.228c1.264-1.929 2.655-3.539 4.174-4.832.509-.433 2.783-.866 6.823-1.299-3.292-3.221-8.727-6.98-16.305-11.278 1.264-2.794 2.024-6.669 2.278-11.622-3.538.007-7.264-.044-11.176-.153-3.912-.108-7.006.806-9.28 2.741-2.019 1.719-2.906 5.269-2.659 10.648a8.803 8.803 0 0 0-1.897-2.263c-3.538-3.011-11.744-3.979-24.618-2.903zm258.039-5.824 1.133.964c0 1.72 2.147 4.406 6.441 8.06a10.16 10.16 0 0 1-2.659 1.614l-.752.64 1.896 1.614c2.529 2.152 6.003 3.282 10.425 3.39 4.421.108 8.146 1.452 11.176 4.03l.751-.64c0-1.285-.377-3.116-1.133-5.491 3.538.007 7.455-1.174 11.749-3.543l-1.133-.964c-3.793-1.076-6.573-2.365-8.338-3.868a64.762 64.762 0 0 0 1.515-9.674l-5.319-8.384c-1.01.86-2.777 1.826-5.302 2.898-2.525 1.072-4.292 2.039-5.302 2.898-1.773 1.51-2.91 3.337-3.411 5.482l-11.737.974zm-24.63 6.771c1.511 2.152 2.139 3.12 1.885 2.903.508.433 4.679 2.047 12.511 4.842l1.503 1.929-4.162.964.763.649c2.775 2.363 6.437 3.543 10.985 3.543 0 2.152.759 3.875 2.278 5.167 1.01.86 4.04 1.719 9.089 2.578 5.049.86 8.333 1.719 9.852 2.579.755-1.076-1.519-3.871-6.822-8.385-4.04-3.438-8.079-5.156-12.119-5.157l-1.515-1.938c-1.264-1.076-3.16-1.614-5.689-1.615-.501-2.145-1.511-3.863-3.03-5.156-.509-.433-5.685-1.401-15.529-2.903zm43.571 13.226c.755 4.947 3.53 9.461 8.326 13.542 1.518 1.292 2.91 2.043 4.174 2.253.254-3.654-3.407-8.706-10.985-15.155l-1.515-.64zm22.352 10.638c-3.284 2.796-3.284 5.59 0 8.385 3.285 2.795 6.822 2.579 10.615-.65 2.521-2.145 2.012-4.723-1.526-7.735-3.03-2.578-6.059-2.578-9.089 0zm-90.172 5.157c.755 2.362 2.397 5.695 4.926 9.999-1.01.859-2.274 2.578-3.793 5.156.247 3.229.12 7.851-.381 13.867 7.577 3.444 14.523 2.48 20.837-2.894l4.545-5.166c3.538 1.726 6.695 2.693 9.47 2.903-.254-1.935-.123-4.409.393-7.42h1.503c5.057 1.719 9.224 1.827 12.501.324.007-2.578.073-5.104.196-7.577.124-2.474-.952-4.678-3.226-6.614-3.284-2.794-6.946-3.224-10.985-1.289-4.04 1.935-6.187 2.796-6.441 2.579-.501-.426.067-2.091 1.705-4.995 1.639-2.903 1.448-5.214-.572-6.933-1.511-1.285-2.899-1.607-4.163-.964l-.751-1.289c-2.275-1.935-4.549-1.935-6.823 0-.501.426-1.01 3.005-1.526 7.735-2.267-.21-4.348-.371-6.245-.483-1.896-.111-4.614.696-8.152 2.421l-3.018.64zm48.879 44.177c-4.047 3.445-4.179 6.777-.393 9.999 2.528 2.152 5.816.863 9.863-3.868 1.265.643 4.294 1.286 9.089 1.929 1.519-.859 3.857-2.094 7.014-3.705 3.157-1.611 6.253-1.557 9.291.162 4.286 2.795 6.683 4.193 7.192 4.192-1.773-2.361-3.542-4.293-5.307-5.796-7.833-6.665-14.401-7.741-19.705-3.228-6.822-3.654-12.504-3.549-17.044.315zm7.955-31.925c11.371 5.807 19.581 10.859 24.631 15.156 5.812 4.947 10.735 9.785 14.766 14.515-4.795-1.508-8.961-1.833-12.5-.974l.763.65c8.588 2.152 14.27 4.409 17.045 6.77 6.067 5.164 5.184 16.668-2.648 34.513-7.077 15.904-14.277 26.971-21.601 33.204-.763.65-2.405 1.621-4.926 2.913-2.02 1.286-3.28 2.359-3.781 3.218v.65c2.267 1.929 6.556.207 12.87-5.167 5.813-4.947 11.939-13.707 18.38-26.281 6.442-12.574 9.789-22.301 10.043-29.184.255-6.882-1.576-12.632-5.492-17.251a4173.264 4173.264 0 0 0-11.945-14.024c-.247-4.513-1.253-7.954-3.018-10.323-3.03-4.73-4.925-7.848-5.684-9.354-.759-1.506-.507-3.439.757-5.801 1.265-2.362 1.766-4.081 1.504-5.157l-3.4 1.614c-3.785 3.221-4.545 7.306-2.278 12.252.254 1.503 2.528 5.59 6.823 12.262-15.912-10.969-26.015-15.703-30.309-14.201zm-61.39 43.862c-1.01.86-2.147 2.254-3.411 4.183.509.433 1.648.543 3.417.329 1.769-.213 3.282.215 4.539 1.285l-1.515 1.289c-2.783 2.368-5.94 3.336-9.471 2.903 1.264 1.942 2.147 3.126 2.648 3.553 1.264 1.076 3.538 2.152 6.823 3.227l-4.163 3.543c-2.783 2.369-2.91 6.565-.382 12.587 1.01-.439 3.916-.977 8.719-1.614 3.03-.439 5.427-2.053 7.193-4.842l1.144.325.185 1.447c.124.964.69 1.876 1.7 2.736 1.018.866 3.292 2.158 6.823 3.877.254-1.502 1.518-3.438 3.792-5.806 2.275-2.369 3.157-5.055 2.649-8.06 4.794.643 8.583.535 11.366-.325a125.415 125.415 0 0 0 8.338-2.903l-3.781-1.939c-.756-.642-1.702-2.416-2.839-5.319s-2.466-5.001-3.984-6.293c-3.284-2.795-7.324-1.503-12.118 3.877l-.382-.325.751-2.568c3.03-3.877 1.893-8.073-3.411-12.587-2.528-2.152-5.307-3.224-8.337-3.218 0 1.719-.505 4.084-1.515 7.095-6.059-.865-10.985.316-14.778 3.543zm119.74 3.218-.763 1.299c7.331 14.834 6.198 26.335-3.4 34.503-1.264 1.077-3.413 2.259-6.447 3.548-3.033 1.289-5.182 2.472-6.446 3.548l-1.133 1.614c6.822-.217 13.263-2.903 19.322-8.06 5.558-4.73 8.021-10.589 7.389-17.576-.632-6.988-3.473-13.279-8.522-18.876zm-69.346 11.288c5.558 1.726 10.106 4.094 13.645 7.105 4.54 3.865 8.138 9.184 10.794 15.958 2.656 6.773 3.101 12.631 1.336 17.571l1.133.965c6.568-13.752 3.912-25.682-7.967-35.793-6.569-5.589-12.882-7.525-18.941-5.806zm-105.332 21.286-1.145 2.904c-1.264.643-2.274 1.286-3.029 1.928-1.519 1.293-1.392 2.694.381 4.203 1.01.859 2.209 1.341 3.596 1.446 1.388.105 3.095 1.021 5.123 2.746 3.284 2.795 5.936 3.333 7.956 1.614-.001-.433.755-2.585 2.266-6.456 1.017-2.152.644-3.979-1.122-5.481-5.812-4.947-10.488-5.915-14.026-2.904zm25.382 8.06 1.896.965c3.037 2.585 2.405 5.918-1.896 9.998l1.896.965 3.793 4.527c2.266 1.929 4.286 2.139 6.059.629.247-.209.247-1.928 0-5.156 2.529 0 4.549-.643 6.06-1.929 4.039-3.438 3.661-6.338-1.134-8.7.756-3.66.628-5.921-.381-6.78-2.02-1.719-4.608-1.665-7.765.162s-6 3.601-8.528 5.319zm51.157 9.999c0 5.157 1.136 8.703 3.411 10.638 1.01.86 3.157 1.827 6.441 2.903 2.019 2.152 2.902 3.12 2.648 2.903 8.587 7.309 17.175 9.245 25.763 5.807l-.37-.965a187.305 187.305 0 0 0-9.482-1.614c-6.059-1.286-10.858-3.434-14.396-6.446-.756-.643-1.386-1.933-1.891-3.872-.505-1.939-1.513-3.551-3.024-4.837-1.018-.866-4.051-2.372-9.1-4.517zm-57.98 3.543c-6.822 5.806-6.445 13.869 1.133 24.189 1.527-1.719 3.046-5.373 4.557-10.963.254-1.502-.565-3.705-2.458-6.608-1.892-2.904-2.715-5.109-2.469-6.618h-.763zm71.624 38.379c8.843 3.66 18.313 1.19 28.412-7.41 7.832-6.66 10.989-12.796 9.471-18.392-3.03 5.596-6.565 10.113-10.604 13.552-7.833 6.66-16.925 10.75-27.279 12.25zm-125.047-35.466a141.5 141.5 0 0 0-8.707 8.059c-3.038 3.871-3.169 6.988-.394 9.35.764.649 1.777 1.079 3.042 1.289.755 10.108-.887 17.738-4.926 22.888l-15.16 16.78c2.528-.43 5.812-2.37 9.852-5.81l5.689-4.84c9.598-8.16 12.25-18.16 7.956-29.992.755-.21 1.387-.532 1.896-.965 4.541-3.864 4.791-9.451.752-16.759zm-112.536 19.662c1.519 1.293 4.421 3.124 8.707 5.484l-1.503.65c-5.812 4.51-8.214 12.35-7.204 23.53l.37-.32c-.246.21 3.041 0 9.864-.65 6.822-.64 12.126-1.93 15.911-3.86 1.01 1.72 2.525 3.44 4.544 5.16.255.22 1.901.97 4.938 2.26l2.267-3.23 6.441-4.18c1.009-.86 2.143-2.48 3.399-4.85 3.038.44 7.335.43 12.893-.01-1.518-2.14-1.898-5.15-1.139-9.02.76-3.86.253-6.55-1.52-8.06-3.03-2.579-7.006-2.095-11.928 1.45-4.922 3.55-8.142 4.67-9.661 3.38-1.01-.86-.127-2.47 2.648-4.83l1.133-.97c5.813-4.942 6.445-9.351 1.897-13.222-2.776-2.361-6.06-3.864-9.853-4.507-5.303-.643-8.711-1.18-10.222-1.614-.763 1.936-1.017 5.374-.763 10.314-4.294-1.502-8.146-1.232-11.558.812a150.987 150.987 0 0 0-9.661 6.283zm180.356 9.674c-1.511 1.29-3.026 3.65-4.545 7.1l21.219-10.33c8.842-2.79 17.053-.96 24.631 5.49 3.029 2.58 5.18 5.48 6.452 8.7l1.122.33c.763-4.51-1.007-8.59-5.308-12.25-5.805-4.94-13.065-7.26-21.78-6.94-8.715.32-15.979 2.95-21.791 7.9zm-27.278-14.181c-6.06 5.59-9.658 13.271-10.795 23.051-1.137 9.78 1.451 17.36 7.765 22.73 5.057 4.3 9.985 4.95 14.784 1.94 4.799-3 9.341-6.12 13.627-9.35l-3.781-.64c-1.519-.01-5.18 2.03-10.985 6.12-3.539 2.15-7.2 1.61-10.985-1.61-9.598-8.17-9.093-21.72 1.514-40.637l-1.144-1.604zm1.133 34.501c.254.22-.124 1.18-1.133 2.9 3.291-1.51 8.344-3.22 15.159-5.15 3.038-.87 11.753-1.41 26.145-1.63 11.872-.21 19.955-2.14 24.249-5.79-.254-.22-2.592.05-7.013.8-4.421.75-14.337 1.24-29.747 1.45-12.882.22-22.102 2.69-27.66 7.42zm44.346 5.48c1.002 1.29 2.389 3.11 4.163 5.48l-4.545 2.58c-1.765 1.51-2.401 4.19-1.908 8.06.255 5.38.382 8.28.382 8.71 2.282-.64 4.874-.59 7.776.16 2.903.76 5.364.92 7.383.48 1.018 3.87 1.654 5.92 1.909 6.13 1.009.86 2.965 1.78 5.868 2.74 2.903.97 5.236 2.42 7.002 4.36-.247-1.51 1.395-3.77 4.926-6.77 2.274-1.94 3.663-4.09 4.168-6.45.505-2.37.885-3.88 1.139-4.52 5.304 1.5 10.862.64 16.675-2.58l-1.133-.97c-.255-.21-.887-2.15-1.897-5.8-1.009-3.66-3.033-6.34-6.071-8.06-.246.64 1.65-.76 5.69-4.2.501-.42 1.069-1.12 1.705-2.09.636-.97 1.081-1.56 1.336-1.77-3.546-1.72-7.339-3.55-11.379-5.49-4.039-1.93-7.574-1.61-10.603.97-1.265 1.08-2.213 2.96-2.845 5.65-.632 2.69-1.326 4.35-2.081 5l-3.042-1.29-4.163-6.14c-2.775-2.36-6.059-2.47-9.852-.32-3.792 2.15-7.327 4.2-10.603 6.13zm-137.548 8.71c-1.765 1.51-2.525 3.01-2.278 4.52 1.766-.65 4.545-1.51 8.337-2.59 2.275.22 5.304 0 9.089-.65l-2.266-1.93c-4.04-3.43-8.334-3.22-12.882.65zm21.601 2.9v.65c1.511 1.28 6.309 1.07 14.396-.64a576.818 576.818 0 0 0 16.293-3.56c4.795.21 11.236-.54 19.323-2.25l-.382-.97c-3.03-2.15-13.132-1.5-30.308 1.93 2.012-3.01 3.523-4.94 4.533-5.8 9.606-8.18 19.839-7.64 30.701 1.6 4.548 3.87 7.578 7.96 9.089 12.26l1.145.33c2.019-4.3-1.01-9.89-9.089-16.77-11.116-9.46-22.36-9.35-33.731.32-2.02 1.72-4.29 4.73-6.811 9.03-3.284 1.07-8.086 2.15-14.408 3.23l-.751.64zm-74.654 3.54c-4.294 3.65-6.821 8.28-7.58 13.87-.76 5.59.757 10.21 4.55 13.86l.752.01 2.463-6.61c1.642-4.41 4.105-8.01 7.389-10.81 6.067-5.16 13.204-8.01 21.41-8.54 8.206-.54 15.215 1.67 21.028 6.61 2.274 1.94 4.548 5.16 6.822 9.68l3.411 6.77 1.515.64.752-.64c.262-6.67-2.891-12.8-9.459-18.39-6.314-5.37-14.08-7.89-23.3-7.57-9.221.32-17.114 3.27-23.682 8.86-3.038 2.59-6.071 6.89-9.101 12.91-1.264-7.96.883-14.3 6.441-19.03 2.783-2.37 7.711-4.62 14.784-6.77 7.073-2.15 11.746-4.19 14.021-6.13 4.039-3.44 5.427-6.55 4.163-9.35h-.764c-1.765 3.22-3.407 5.48-4.926 6.77-1.765 1.51-6.248 3.28-13.448 5.32-7.2 2.04-12.947 4.88-17.241 8.54zm119.728 12.26c.509 1.72 2.66 3.98 6.453 6.77l-1.515 1.29c-2.028 1.29-3.545 3.44-4.551 6.45a167.254 167.254 0 0 1-3.035 8.39h11.379c1.51 3.44 3.149 5.91 4.914 7.41.763.65 2.218 1.46 4.365 2.43 2.147.97 3.722 2.09 4.724 3.38l1.145-2.91c7.077-6.02 9.983-10.43 8.719-13.22 5.303 1.07 9.975-.11 14.015-3.54-.255.21.886-1.19 3.422-4.2l2.267-.65c-2.274-1.5-6.191-3.54-11.749-6.12 1.519-6.01 1.9-10.64 1.145-13.86-2.028.86-4.683 1.29-7.967 1.29s-5.558.53-6.823 1.61l-.751 1.29c-.501.86-.374 2.58.381 5.16.756 2.57.501 4.4-.763 5.48-1.519 1.29-3.288 1.08-5.308-.64-2.019-1.72-2.27-4.73-.751-9.03-2.775-1.51-5.807-1.19-9.095.96-3.288 2.15-6.828 2.9-10.621 2.26zm-99.261 14.19c-2.274 1.94-1.896 4.19 1.133 6.77 2.275 1.94 7.012 2.64 14.212 2.1s12.064-1.88 14.593-4.04c-5.566-1.28-9.613-3-12.142-5.15-5.804-4.94-9.967-6.34-12.488-4.2l-.763 3.23c-1.511-.43-3.026 0-4.545 1.29zm-36.379 15.47c.255.22-.25.87-1.514 1.94 3.276.22 13.255 3.34 29.937 9.36-1.017-2.15-2.158-3.77-3.422-4.84-3.284-2.8-8.839-5.16-16.663-7.1 6.059-4.3 15.275-11.72 27.648-22.25 1.264-1.07 3.351-2.53 6.261-4.35 2.911-1.83 4.994-3.28 6.251-4.35.254-.21.632-.75 1.133-1.61-4.548-.43-10.23 2.25-17.045 8.05-11.37 10.11-16.169 14.41-14.396 12.9l-18.19 12.25zm32.586-1.93c-1.009.86-.632 2.04 1.134 3.55-.247-.21 1.017.44 3.792 1.94-.755 1.93-.882 3.11-.381 3.54 1.264 1.07 4.548.32 9.852-2.26 5.304-2.57 8.965-4.72 10.985-6.44-4.548-.44-8.965-.97-13.252-1.62-6.567-.43-10.611 0-12.13 1.29zm39.409-8.38c-.509.43-.891 1.4-1.145 2.9-1.01.43-2.02 1.07-3.03 1.93-1.765 1.5-1.761 3.01.012 4.52.755.64 3.026.64 6.811.01l7.574-1.94c2.528 0 6.258 1.34 11.187 4.03 4.93 2.69 7.896 4.03 8.899 4.03l-2.267-2.58c-1.773-1.51-4.427-3.34-7.961-5.49-3.535-2.14-6.185-3.97-7.95-5.47-4.803-4.09-8.846-4.74-12.13-1.94zm-81.477 15.15c2.529 13.34.004 23.23-7.574 29.67-6.059 5.16-15.529 8.49-28.411 9.99l-.382 1.63c11.618 2.58 21.597.32 29.938-6.78 4.294-3.66 7.831-9.35 10.61-17.09 2.779-7.74 2.148-13.33-1.891-16.77l-1.145-.97-1.145.32zm-5.296-5.15c-7.832 10.1-11.875 15.26-12.13 15.48-1.765 1.5-4.542 3.43-8.331 5.8-3.789 2.36-6.566 4.3-8.332 5.8-7.077 6.02-12.13 18.06-15.16 36.13l1.134-.34c1.264-1.07 2.97-5.64 5.116-13.7 2.147-8.06 5.622-14.14 10.425-18.22 1.765-1.5 4.732-3.6 8.898-6.29 4.167-2.68 7.137-4.78 8.91-6.29 9.089-7.73 12.246-13.86 9.47-18.37zm20.468 21.92c1.511 2.59 3.658 6.35 6.441 11.29-3.539.86-7.582 1.72-12.131 2.59v1.28l3.412 2.9c.755.64 1.89 1.18 3.405 1.61 1.515.43 2.654.97 3.417 1.62-2.528 9.46-4.675 14.73-6.441 15.79 3.277 2.37 7.38 3.07 12.309 2.11 4.93-.97 8.783-2.85 11.558-5.65 1.265 2.36 2.907 6.12 4.926 11.28l.763.65 1.134-1.61 9.47-6.77c4.047-3.44 5.435-6.99 4.163-10.64 2.783-.65 4.93-1.4 6.441-2.26l3.793-3.23c1.264-1.92 2.655-3.53 4.174-4.83.509-.43 2.783-.86 6.823-1.3-3.292-3.22-8.727-6.98-16.305-11.27 1.264-2.8 2.024-6.67 2.278-11.63-3.538.01-7.264-.04-11.176-.15-3.912-.11-7.006.81-9.28 2.74-2.019 1.72-2.906 5.27-2.659 10.65a8.673 8.673 0 0 0-1.897-2.26c-3.538-3.01-11.744-3.98-24.618-2.91z" fill="#99B898" fill-opacity=".25"/><defs><linearGradient id="paint0_linear" x1="-612.135" y1="1586.4" x2="-612.135" y2="1373.14" gradientUnits="userSpaceOnUse"><stop/><stop offset="1" stop-opacity="0"/></linearGradient><linearGradient id="paint1_linear" x1="-612.135" y1="1139.66" x2="-612.135" y2="1373.14" gradientUnits="userSpaceOnUse"><stop/><stop offset="1" stop-opacity="0"/></linearGradient><linearGradient id="paint2_linear" x1="-271.417" y1="2077.87" x2="66.072" y2="2077.87" gradientUnits="userSpaceOnUse"><stop/><stop offset="1" stop-opacity="0"/></linearGradient><linearGradient id="paint3_linear" x1="1385.87" y1="2077.87" x2="767.247" y2="2077.87" gradientUnits="userSpaceOnUse"><stop/><stop offset="1" stop-opacity="0"/></linearGradient><linearGradient id="paint4_linear" x1="-612.135" y1="1508.52" x2="-612.135" y2="1238.35" gradientUnits="userSpaceOnUse"><stop/><stop offset="1" stop-opacity="0"/></linearGradient><linearGradient id="paint5_linear" x1="-612.135" y1="990.492" x2="-612.135" y2="1238.35" gradientUnits="userSpaceOnUse"><stop/><stop offset="1" stop-opacity="0"/></linearGradient><linearGradient id="paint6_linear" x1="917.331" y1="2079.88" x2="638.476" y2="2079.88" gradientUnits="userSpaceOnUse"><stop/><stop offset="1" stop-opacity="0"/></linearGradient><linearGradient id="paint7_linear" x1="-62.699" y1="2079.88" x2="248.046" y2="2079.88" gradientUnits="userSpaceOnUse"><stop/><stop offset="1" stop-opacity="0"/></linearGradient><linearGradient id="paint8_linear" x1="105.796" y1="-618.688" x2="346.574" y2="-618.688" gradientUnits="userSpaceOnUse"><stop/><stop offset="1" stop-opacity="0"/></linearGradient><linearGradient id="paint9_linear" x1="768.717" y1="-618.688" x2="520.181" y2="-618.688" gradientUnits="userSpaceOnUse"><stop/><stop offset="1" stop-opacity="0"/></linearGradient><linearGradient id="paint10_linear" x1="-602.266" y1="1380.98" x2="-602.266" y2="1118.03" gradientUnits="userSpaceOnUse"><stop/><stop offset="1" stop-opacity="0"/></linearGradient><linearGradient id="paint11_linear" x1="-602.266" y1="-31.912" x2="-602.266" y2="338.14" gradientUnits="userSpaceOnUse"><stop/><stop offset="1" stop-opacity="0"/></linearGradient><linearGradient id="paint12_linear" x1="-602.267" y1="-65.9" x2="-602.267" y2="201.708" gradientUnits="userSpaceOnUse"><stop/><stop offset="1" stop-opacity="0"/></linearGradient><linearGradient id="paint13_linear" x1="-602.267" y1="447.205" x2="-602.267" y2="201.708" gradientUnits="userSpaceOnUse"><stop/><stop offset="1" stop-opacity="0"/></linearGradient><linearGradient id="paint14_linear" x1="912.656" y1="-631.821" x2="636.452" y2="-631.821" gradientUnits="userSpaceOnUse"><stop/><stop offset="1" stop-opacity="0"/></linearGradient><linearGradient id="paint15_linear" x1="-58.056" y1="-631.821" x2="249.735" y2="-631.821" gradientUnits="userSpaceOnUse"><stop/><stop offset="1" stop-opacity="0"/></linearGradient><linearGradient id="paint16_linear" x1="-602.267" y1="-143.019" x2="-602.267" y2="68.212" gradientUnits="userSpaceOnUse"><stop/><stop offset="1" stop-opacity="0"/></linearGradient><linearGradient id="paint17_linear" x1="-602.267" y1="299.474" x2="-602.267" y2="68.212" gradientUnits="userSpaceOnUse"><stop/><stop offset="1" stop-opacity="0"/></linearGradient><linearGradient id="paint18_linear" x1="-264.789" y1="-629.814" x2="69.49" y2="-629.814" gradientUnits="userSpaceOnUse"><stop/><stop offset="1" stop-opacity="0"/></linearGradient><linearGradient id="paint19_linear" x1="1376.74" y1="-629.814" x2="763.998" y2="-629.814" gradientUnits="userSpaceOnUse"><stop/><stop offset="1" stop-opacity="0"/></linearGradient></defs></svg>