<svg width="855" height="1442" fill="none" xmlns="http://www.w3.org/2000/svg"><path fill-rule="evenodd" clip-rule="evenodd" d="M1 1441h853.278v-132.52H1V1441z" fill="#CCC" fill-opacity=".2"/><path fill-rule="evenodd" clip-rule="evenodd" d="M1 1441h853.278v-132.52H1V1441z" fill="url('#paint0_linear')"/><path fill-rule="evenodd" clip-rule="evenodd" d="M1 1441h853.278v-132.52H1V1441z" fill="url('#paint1_linear')"/><path fill-rule="evenodd" clip-rule="evenodd" d="M1 1441h853.278v-132.52H1V1441z" fill="url('#paint2_linear')"/><path fill-rule="evenodd" clip-rule="evenodd" d="M1 1441h853.278v-132.52H1V1441z" fill="url('#paint3_linear')"/><path d="M1 1441h853.278v-132.52H1V1441z" stroke="#000" stroke-opacity=".2" stroke-width="1.01"/><path fill-rule="evenodd" clip-rule="evenodd" d="M157.826 1307.9h539.666v-139.09H157.826v139.09z" fill="#CCC" fill-opacity=".2" stroke="#000" stroke-opacity=".2" stroke-width=".667"/><path fill-rule="evenodd" clip-rule="evenodd" d="M157.826 1307.9h539.666v-139.09H157.826v139.09z" fill="url('#paint4_linear')"/><path fill-rule="evenodd" clip-rule="evenodd" d="M157.826 1307.9h539.666v-139.09H157.826v139.09z" fill="url('#paint5_linear')"/><path fill-rule="evenodd" clip-rule="evenodd" d="M157.826 1307.9h539.666v-139.09H157.826v139.09z" fill="url('#paint6_linear')"/><path fill-rule="evenodd" clip-rule="evenodd" d="M157.826 1307.9h539.666v-139.09H157.826v139.09z" fill="url('#paint7_linear')"/><path fill-rule="evenodd" clip-rule="evenodd" d="M265.489 270.908h339.689v898.022H265.489V270.908z" fill="#CCC" fill-opacity=".2" stroke="#000" stroke-opacity=".2" stroke-width=".917"/><path fill-rule="evenodd" clip-rule="evenodd" d="M265.489 270.908h339.689v898.022H265.489V270.908z" fill="url('#paint8_linear')"/><path fill-rule="evenodd" clip-rule="evenodd" d="M265.489 270.908h339.689v898.022H265.489V270.908z" fill="url('#paint9_linear')"/><path fill-rule="evenodd" clip-rule="evenodd" d="M265.489 270.908h339.689v898.022H265.489V270.908z" fill="url('#paint10_linear')"/><path fill-rule="evenodd" clip-rule="evenodd" d="M265.489 270.908h339.689v898.022H265.489V270.908z" fill="url('#paint11_linear')"/><path fill-rule="evenodd" clip-rule="evenodd" d="M313.308 338.65h39.46v789.19h-39.46V338.65z" fill="#fff" fill-opacity=".1" stroke="#000" stroke-opacity=".2"/><path fill-rule="evenodd" clip-rule="evenodd" d="M417.264 338.65h39.46v789.19h-39.46V338.65zm103.957 0h39.46v789.19h-39.46V338.65z" fill="#fff" fill-opacity=".05" stroke="#000" stroke-opacity=".2"/><path fill-rule="evenodd" clip-rule="evenodd" d="M160.372 132.817h534.535v137.762H160.372V132.817z" fill="#CCC" fill-opacity=".2" stroke="#000" stroke-opacity=".2" stroke-width=".66"/><path fill-rule="evenodd" clip-rule="evenodd" d="M160.372 132.817h534.535v137.762H160.372V132.817z" fill="url('#paint12_linear')"/><path fill-rule="evenodd" clip-rule="evenodd" d="M160.372 132.817h534.535v137.762H160.372V132.817z" fill="url('#paint13_linear')"/><path fill-rule="evenodd" clip-rule="evenodd" d="M160.372 132.817h534.535v137.762H160.372V132.817z" fill="url('#paint14_linear')"/><path fill-rule="evenodd" clip-rule="evenodd" d="M160.372 132.817h534.535v137.762H160.372V132.817z" fill="url('#paint15_linear')"/><path fill-rule="evenodd" clip-rule="evenodd" d="M5.037 1h845.164v131.261H5.037V1z" fill="#CCC" fill-opacity=".2"/><path fill-rule="evenodd" clip-rule="evenodd" d="M5.037 1h845.164v131.261H5.037V1z" fill="url('#paint16_linear')"/><path fill-rule="evenodd" clip-rule="evenodd" d="M5.037 1h845.164v131.261H5.037V1z" fill="url('#paint17_linear')"/><path fill-rule="evenodd" clip-rule="evenodd" d="M5.037 1h845.164v131.261H5.037V1z" fill="url('#paint18_linear')"/><path fill-rule="evenodd" clip-rule="evenodd" d="M5.037 1h845.164v131.261H5.037V1z" fill="url('#paint19_linear')"/><path d="M5.037 1h845.164v131.261H5.037V1z" stroke="#000" stroke-opacity=".2"/><path d="m540.375 294.211 1.13.961c0 1.714 2.139 4.391 6.419 8.033a10.126 10.126 0 0 1-2.651 1.609l-.749.637 1.89 1.609c2.52 2.145 5.983 3.271 10.39 3.378 4.406.108 8.119 1.447 11.138 4.017l.749-.638c0-1.281-.376-3.105-1.129-5.473 3.526.007 7.429-1.17 11.709-3.53l-1.13-.962c-3.78-1.072-6.55-2.356-8.309-3.854a64.613 64.613 0 0 0 1.51-9.642L566.04 282c-1.006.857-2.767 1.82-5.283 2.888-2.516 1.069-4.278 2.033-5.284 2.889-1.768 1.504-2.901 3.325-3.4 5.463l-11.698.971zm-24.547 6.748c1.506 2.145 2.132 3.109 1.878 2.893.507.432 4.664 2.041 12.47 4.826l1.498 1.922-4.149.961.761.648c2.766 2.354 6.415 3.531 10.948 3.531 0 2.145.757 3.861 2.271 5.149 1.006.857 4.025 1.713 9.058 2.57 5.032.856 8.305 1.713 9.819 2.569.753-1.072-1.514-3.857-6.8-8.356-4.026-3.426-8.052-5.139-12.077-5.14l-1.51-1.932c-1.26-1.072-3.15-1.608-5.67-1.608-.5-2.138-1.506-3.851-3.02-5.14-.507-.431-5.666-1.395-15.477-2.893zm43.424 13.182c.753 4.93 3.519 9.429 8.298 13.496 1.514 1.288 2.9 2.037 4.161 2.246.253-3.642-3.396-8.677-10.949-15.104l-1.51-.638zm22.278 10.602c-3.273 2.786-3.274 5.572 0 8.357 3.273 2.785 6.799 2.57 10.579-.647 2.512-2.138 2.005-4.708-1.521-7.709-3.02-2.57-6.039-2.57-9.058-.001zm-89.869 5.14c.753 2.354 2.389 5.676 4.909 9.965-1.006.857-2.266 2.57-3.78 5.139.246 3.217.119 7.824-.38 13.82 7.552 3.433 14.475 2.472 20.767-2.884l4.529-5.149c3.527 1.72 6.673 2.684 9.439 2.893-.254-1.928-.123-4.393.392-7.395h1.498c5.04 1.714 9.193 1.821 12.458.324.008-2.57.073-5.087.196-7.552.123-2.466-.949-4.662-3.215-6.591-3.273-2.786-6.923-3.214-10.949-1.285-4.026 1.928-6.166 2.785-6.419 2.569-.499-.424.067-2.084 1.7-4.977 1.633-2.894 1.442-5.197-.57-6.91-1.506-1.281-2.889-1.602-4.149-.961l-.749-1.285c-2.267-1.928-4.534-1.929-6.8 0-.499.425-1.006 2.995-1.521 7.709a186.972 186.972 0 0 0-6.224-.48c-1.889-.112-4.598.693-8.124 2.412l-3.008.638zm48.714 44.028c-4.033 3.433-4.164 6.755-.392 9.965 2.52 2.145 5.797.86 9.831-3.855 1.26.641 4.279 1.282 9.058 1.923 1.514-.856 3.844-2.087 6.99-3.693 3.146-1.605 6.233-1.551 9.26.162 4.272 2.786 6.661 4.178 7.168 4.178-1.767-2.354-3.53-4.279-5.289-5.777-7.807-6.643-14.353-7.715-19.639-3.217-6.799-3.642-12.462-3.537-16.987.314zm7.929-31.817c11.332 5.787 19.515 10.822 24.548 15.104 5.792 4.931 10.698 9.753 14.717 14.467-4.779-1.504-8.932-1.827-12.458-.971l.76.647c8.559 2.145 14.221 4.395 16.987 6.748 6.047 5.147 5.167 16.612-2.639 34.397-7.053 15.85-14.229 26.881-21.528 33.092-.761.648-2.397 1.616-4.909 2.904-2.013 1.281-3.27 2.35-3.769 3.207v.647c2.259 1.923 6.534.206 12.827-5.149 5.793-4.93 11.899-13.661 18.318-26.192 6.42-12.532 9.756-22.227 10.01-29.086.253-6.859-1.572-12.59-5.474-17.194a4265.797 4265.797 0 0 0-11.905-13.976c-.246-4.498-1.249-7.928-3.008-10.289-3.02-4.714-4.908-7.821-5.665-9.322-.756-1.501-.505-3.428.755-5.782s1.759-4.067 1.498-5.139l-3.388 1.608c-3.773 3.211-4.529 7.281-2.27 12.211.253 1.498 2.52 5.571 6.799 12.221-15.858-10.933-25.927-15.65-30.206-14.153zm-61.184 43.714c-1.006.857-2.14 2.247-3.4 4.169.507.432 1.643.541 3.406.328 1.763-.213 3.271.215 4.523 1.28l-1.51 1.285c-2.773 2.361-5.919 3.325-9.438 2.893 1.26 1.936 2.139 3.116 2.639 3.541 1.26 1.073 3.526 2.145 6.799 3.217l-4.148 3.531c-2.774 2.361-2.901 6.542-.381 12.544 1.007-.437 3.903-.974 8.69-1.608 3.019-.438 5.409-2.046 7.168-4.826l1.141.324.184 1.442c.123.961.688 1.87 1.695 2.726 1.014.864 3.28 2.152 6.799 3.865.254-1.497 1.514-3.426 3.78-5.787 2.267-2.36 3.146-5.038 2.639-8.033 4.779.641 8.555.534 11.329-.323a125.129 125.129 0 0 0 8.309-2.894l-3.768-1.932c-.753-.64-1.696-2.407-2.83-5.301-1.133-2.894-2.456-4.984-3.97-6.272-3.273-2.786-7.299-1.498-12.078 3.864l-.38-.324.749-2.56c3.019-3.864 1.886-8.045-3.4-12.544-2.52-2.144-5.289-3.214-8.309-3.207 0 1.713-.503 4.07-1.509 7.071-6.039-.862-10.949.314-14.729 3.531zm119.337 3.208-.76 1.294c7.306 14.784 6.177 26.247-3.388 34.387-1.261 1.073-3.402 2.251-6.426 3.536-3.023 1.285-5.165 2.463-6.424 3.536l-1.13 1.608c6.799-.215 13.219-2.893 19.258-8.032 5.539-4.715 7.994-10.554 7.364-17.518-.63-6.964-3.461-13.234-8.494-18.811zm-69.113 11.249c5.539 1.72 10.073 4.081 13.599 7.082 4.525 3.851 8.111 9.152 10.758 15.903 2.647 6.751 3.091 12.589 1.332 17.513l1.129.961c6.546-13.705 3.899-25.596-7.94-35.672-6.547-5.571-12.839-7.5-18.878-5.787zM432.367 421.48l-1.141 2.893c-1.26.641-2.267 1.282-3.02 1.923-1.513 1.288-1.387 2.684.381 4.188 1.006.857 2.201 1.337 3.584 1.442 1.383.104 3.084 1.017 5.105 2.736 3.273 2.786 5.916 3.322 7.929 1.609 0-.432.753-2.576 2.259-6.435 1.014-2.144.641-3.965-1.118-5.463-5.793-4.93-10.453-5.894-13.979-2.893zm25.296 8.033 1.89.961c3.027 2.577 2.397 5.898-1.89 9.965l1.89.961 3.78 4.512c2.259 1.922 4.272 2.132 6.039.628.246-.209.246-1.923 0-5.14 2.52 0 4.533-.64 6.039-1.922 4.026-3.426 3.649-6.316-1.129-8.67.752-3.649.626-5.902-.381-6.758-2.013-1.713-4.592-1.659-7.738.162-3.147 1.82-5.98 3.588-8.5 5.301zm50.985 9.965c0 5.139 1.133 8.674 3.4 10.602 1.006.857 3.146 1.821 6.419 2.894 2.013 2.144 2.892 3.109 2.639 2.893 8.559 7.284 17.118 9.213 25.677 5.787l-.369-.961a185.87 185.87 0 0 0-9.45-1.609c-6.039-1.281-10.822-3.423-14.348-6.424-.753-.641-1.381-1.927-1.885-3.86-.503-1.932-1.507-3.539-3.013-4.82-1.014-.863-4.038-2.364-9.07-4.502zm-57.784 3.531c-6.8 5.787-6.424 13.823 1.129 24.108 1.521-1.713 3.035-5.355 4.541-10.926.253-1.498-.563-3.693-2.449-6.586-1.886-2.894-2.707-5.092-2.461-6.596h-.76zm71.383 38.251c8.812 3.642 18.251 1.18 28.316-7.385 7.806-6.643 10.952-12.754 9.439-18.332-3.02 5.578-6.543 10.08-10.568 13.506-7.807 6.644-16.869 10.714-27.187 12.211zM397.62 445.912a141.15 141.15 0 0 0-8.678 8.033c-3.027 3.858-3.158 6.964-.392 9.317.761.648 1.771 1.076 3.031 1.285.753 10.07-.884 17.674-4.91 22.814l-15.108 16.722c2.52-.431 5.793-2.36 9.819-5.787l5.67-4.825c9.565-8.141 12.208-18.105 7.929-29.895.753-.209 1.383-.529 1.89-.961 4.525-3.851 4.775-9.419.749-16.703zm-112.158 19.596c1.514 1.289 4.407 3.11 8.679 5.463l-1.499.648c-5.793 4.498-8.186 12.315-7.18 23.451l.369-.314c-.245.209 3.031-.007 9.831-.647 6.799-.641 12.085-1.926 15.858-3.855 1.006 1.72 2.516 3.436 4.529 5.149.253.216 1.894.965 4.921 2.246l2.259-3.217 6.419-4.168c1.006-.857 2.136-2.465 3.388-4.826 3.027.432 7.31.429 12.85-.01-1.514-2.138-1.892-5.134-1.135-8.989.756-3.854.251-6.533-1.516-8.037-3.019-2.57-6.982-2.088-11.887 1.446-4.906 3.534-8.115 4.658-9.629 3.369-1.006-.856-.127-2.461 2.639-4.815l1.129-.962c5.794-4.93 6.424-9.323 1.891-13.181-2.766-2.354-6.039-3.852-9.82-4.493-5.285-.64-8.681-1.176-10.187-1.608-.761 1.929-1.014 5.355-.761 10.279-4.279-1.497-8.119-1.228-11.519.809a150.699 150.699 0 0 0-9.629 6.262zm179.75 9.642c-1.506 1.281-3.016 3.639-4.529 7.071l21.147-10.288c8.813-2.779 16.995-.955 24.548 5.472 3.019 2.57 5.163 5.46 6.43 8.671l1.118.323c.761-4.492-1.003-8.562-5.29-12.211-5.785-4.923-13.021-7.226-21.706-6.909-8.686.317-15.925 2.941-21.718 7.871zm-27.187-14.134c-6.039 5.571-9.625 13.23-10.758 22.976-1.133 9.745 1.446 17.296 7.739 22.651 5.04 4.29 9.951 4.935 14.734 1.937a192.625 192.625 0 0 0 13.582-9.322l-3.769-.638c-1.514-.006-5.163 2.027-10.948 6.101-3.527 2.138-7.176 1.602-10.949-1.609-9.565-8.14-9.062-21.639 1.51-40.497l-1.141-1.599zm1.13 34.387c.253.216-.123 1.177-1.13 2.884 3.281-1.497 8.317-3.207 15.109-5.13 3.027-.863 11.713-1.402 26.057-1.618 11.832-.209 19.888-2.135 24.167-5.777-.253-.216-2.583.051-6.99.799-4.406.749-14.288 1.231-29.647 1.447-12.838.216-22.027 2.681-27.566 7.395zm44.196 5.463c.999 1.282 2.382 3.1 4.149 5.453l-4.529 2.58c-1.759 1.498-2.393 4.175-1.901 8.033.253 5.355.38 8.249.38 8.68 2.274-.641 4.858-.587 7.75.162 2.893.748 5.346.907 7.359.475 1.014 3.858 1.648 5.895 1.901 6.111 1.007.857 2.956 1.767 5.849 2.731 2.893.965 5.219 2.412 6.978 4.34-.246-1.503 1.391-3.753 4.91-6.748 2.266-1.928 3.651-4.071 4.154-6.429.503-2.357.882-3.859 1.135-4.506 5.286 1.504 10.826.647 16.619-2.57l-1.13-.961c-.253-.216-.883-2.145-1.89-5.787-1.006-3.642-3.023-6.32-6.05-8.033-.246.641 1.644-.752 5.67-4.178.499-.425 1.066-1.12 1.7-2.084.634-.965 1.077-1.555 1.331-1.771a2786.156 2786.156 0 0 0-11.34-5.463c-4.026-1.929-7.549-1.608-10.568.962-1.26 1.072-2.205 2.949-2.835 5.629-.63 2.681-1.322 4.342-2.075 4.983l-3.031-1.285-4.149-6.12c-2.766-2.354-6.038-2.459-9.819-.314a697.43 697.43 0 0 0-10.568 6.11zm-137.085 8.68c-1.759 1.498-2.516 2.999-2.27 4.502 1.76-.647 4.529-1.507 8.309-2.579 2.267.216 5.286 0 9.058-.648l-2.258-1.922c-4.026-3.426-8.306-3.21-12.839.647zm21.528 2.884v.647c1.506 1.282 6.289 1.069 14.348-.637a590.381 590.381 0 0 0 16.239-3.541c4.778.209 11.198-.539 19.257-2.246l-.38-.971c-3.02-2.138-13.088-1.494-30.206 1.932 2.005-3.001 3.511-4.93 4.518-5.787 9.573-8.147 19.772-7.614 30.597 1.599 4.533 3.858 7.553 7.932 9.059 12.221l1.141.324c2.012-4.29-1.007-9.861-9.059-16.713-11.079-9.429-22.285-9.321-33.617.323-2.013 1.714-4.276 4.712-6.788 8.994-3.273 1.073-8.06 2.145-14.36 3.217l-.749.638zm-74.403 3.531c-4.279 3.642-6.797 8.25-7.554 13.824-.757 5.574.755 10.179 4.535 13.815l.749.01 2.455-6.591c1.636-4.394 4.091-7.984 7.364-10.77 6.047-5.145 13.159-7.985 21.338-8.518 8.178-.533 15.164 1.666 20.957 6.596 2.267 1.929 4.533 5.143 6.8 9.641l3.399 6.748 1.51.638.749-.638c.262-6.643-2.881-12.75-9.427-18.321-6.292-5.355-14.033-7.873-23.222-7.552-9.189.32-17.056 3.266-23.602 8.837-3.027 2.576-6.051 6.862-9.07 12.858-1.26-7.925.88-14.244 6.419-18.959 2.774-2.36 7.685-4.611 14.734-6.753 7.049-2.141 11.707-4.176 13.974-6.105 4.026-3.426 5.409-6.532 4.149-9.318h-.761c-1.759 3.211-3.396 5.46-4.909 6.748-1.76 1.498-6.227 3.263-13.403 5.296-7.176 2.034-12.904 4.872-17.184 8.514zm119.326 12.221c.507 1.713 2.651 3.962 6.431 6.748l-1.51 1.284c-2.02 1.289-3.532 3.432-4.535 6.43a170.016 170.016 0 0 1-3.025 8.361h11.34c1.506 3.426 3.139 5.888 4.898 7.385.761.648 2.211 1.454 4.351 2.418 2.14.964 3.709 2.088 4.707 3.369l1.142-2.893c7.053-6.003 9.949-10.397 8.689-13.182 5.286 1.072 9.942-.105 13.968-3.531-.254.216.883-1.177 3.411-4.178l2.259-.648c-2.267-1.497-6.17-3.531-11.709-6.1 1.514-5.996 1.894-10.603 1.141-13.82-2.021.857-4.668 1.285-7.941 1.285-3.272 0-5.539.536-6.799 1.609l-.749 1.284c-.5.857-.373 2.57.38 5.14.753 2.569.499 4.391-.76 5.463-1.514 1.288-3.277 1.076-5.29-.638-2.013-1.713-2.263-4.711-.749-8.994-2.766-1.503-5.788-1.185-9.064.957-3.277 2.141-6.806 2.891-10.586 2.251zm-98.927 14.143c-2.266 1.929-1.89 4.178 1.129 6.748 2.267 1.929 6.988 2.625 14.164 2.089 7.176-.536 12.024-1.877 14.544-4.021-5.547-1.282-9.581-2.995-12.101-5.14-5.785-4.923-9.934-6.316-12.446-4.178l-.761 3.217c-1.506-.431-3.015-.003-4.529 1.285zm-36.256 15.418c.253.216-.25.86-1.51 1.932 3.265.216 13.211 3.325 29.837 9.328-1.014-2.145-2.151-3.754-3.411-4.826-3.273-2.785-8.809-5.142-16.607-7.071 6.039-4.29 15.224-11.682 27.555-22.176 1.26-1.073 3.34-2.519 6.241-4.34 2.9-1.822 4.976-3.265 6.229-4.331.253-.215.63-.752 1.129-1.608-4.533-.432-10.195 2.243-16.987 8.023-11.333 10.076-16.115 14.362-14.348 12.858l-18.128 12.211zm32.476-1.922c-1.007.856-.63 2.033 1.129 3.531-.245-.21 1.015.438 3.78 1.942-.752 1.922-.879 3.096-.38 3.521 1.26 1.072 4.533.323 9.819-2.246 5.286-2.57 8.935-4.711 10.948-6.425a245.845 245.845 0 0 1-13.207-1.608c-6.546-.432-10.576-.003-12.089 1.285zm39.276-8.357c-.507.432-.888 1.396-1.141 2.894-1.007.425-2.013 1.066-3.02 1.922-1.759 1.497-1.755 2.998.012 4.502.753.641 3.016.644 6.788.01l7.549-1.933c2.52.001 6.236 1.339 11.149 4.017 4.914 2.678 7.87 4.016 8.869 4.016l-2.259-2.57c-1.767-1.503-4.412-3.326-7.935-5.467-3.523-2.142-6.163-3.961-7.923-5.459-4.786-4.073-8.816-4.717-12.089-1.932zm-81.203 15.105c2.521 13.286.004 23.143-7.548 29.571-6.039 5.139-15.478 8.458-28.316 9.955l-.381 1.618c11.579 2.57 21.525.317 29.838-6.757 4.279-3.642 7.804-9.32 10.574-17.032 2.769-7.713 2.141-13.282-1.885-16.708l-1.141-.971-1.141.324zm-5.278-5.14c-7.806 10.07-11.836 15.212-12.089 15.428-1.759 1.498-4.527 3.425-8.304 5.782-3.776 2.357-6.544 4.285-8.303 5.782-7.053 6.002-12.089 18.004-15.109 36.005l1.13-.333c1.26-1.073 2.959-5.625 5.099-13.658s5.603-14.086 10.39-18.16c1.759-1.497 4.715-3.584 8.868-6.262 4.152-2.678 7.112-4.768 8.879-6.272 9.059-7.709 12.205-13.813 9.439-18.312zm20.399 21.853c1.506 2.576 3.645 6.326 6.419 11.249-3.527.857-7.556 1.717-12.089 2.58v1.275l3.399 2.893c.753.641 1.885 1.176 3.394 1.604 1.51.428 2.645.966 3.406 1.613-2.52 9.429-4.66 14.676-6.419 15.742 3.265 2.361 7.354 3.059 12.267 2.094 4.914-.964 8.754-2.839 11.519-5.625 1.26 2.354 2.897 6.101 4.91 11.24l.76.647 1.13-1.608 9.439-6.738c4.033-3.433 5.416-6.97 4.148-10.612 2.774-.648 4.914-1.396 6.42-2.246l3.78-3.217c1.26-1.923 2.646-3.528 4.16-4.816.507-.432 2.774-.863 6.8-1.295-3.281-3.21-8.698-6.957-16.25-11.24 1.26-2.785 2.017-6.646 2.27-11.583-3.526.006-7.239-.044-11.138-.152s-6.982.803-9.249 2.731c-2.013 1.714-2.896 5.251-2.65 10.613a8.781 8.781 0 0 0-1.89-2.256c-3.527-3.001-11.706-3.966-24.536-2.893zm257.171-5.805 1.13.961c0 1.713 2.139 4.391 6.419 8.033a10.15 10.15 0 0 1-2.651 1.608l-.749.638 1.89 1.608c2.52 2.145 5.983 3.271 10.39 3.379 4.406.108 8.119 1.447 11.138 4.016l.749-.637c0-1.281-.376-3.106-1.129-5.473 3.526.007 7.429-1.17 11.709-3.531l-1.13-.961c-3.78-1.072-6.55-2.357-8.309-3.855a64.58 64.58 0 0 0 1.51-9.641l-5.302-8.356c-1.006.857-2.767 1.819-5.283 2.888-2.516 1.069-4.278 2.032-5.284 2.889-1.768 1.504-2.901 3.325-3.4 5.463l-11.698.971zm-24.547 6.748c1.506 2.145 2.132 3.109 1.878 2.893.507.432 4.664 2.04 12.47 4.825l1.498 1.923-4.149.961.761.647c2.766 2.355 6.415 3.531 10.948 3.531 0 2.145.757 3.862 2.271 5.149 1.006.857 4.025 1.714 9.058 2.57 5.032.857 8.305 1.714 9.819 2.57.753-1.072-1.514-3.858-6.8-8.357-4.026-3.426-8.052-5.139-12.077-5.139l-1.51-1.932c-1.26-1.072-3.15-1.608-5.67-1.609-.5-2.137-1.506-3.851-3.02-5.139-.507-.431-5.666-1.396-15.477-2.893zm43.424 13.182c.753 4.93 3.519 9.429 8.298 13.495 1.514 1.289 2.9 2.037 4.161 2.246.253-3.641-3.396-8.676-10.949-15.104l-1.51-.637zm22.278 10.602c-3.273 2.786-3.274 5.571 0 8.356 3.273 2.786 6.799 2.57 10.579-.647 2.512-2.138 2.005-4.707-1.521-7.709-3.02-2.569-6.039-2.569-9.058 0zm-89.869 5.139c.753 2.355 2.389 5.676 4.909 9.965-1.006.857-2.266 2.57-3.78 5.14.246 3.217.119 7.824-.38 13.819 7.552 3.433 14.475 2.472 20.767-2.883l4.529-5.149c3.527 1.72 6.673 2.684 9.439 2.893-.254-1.929-.123-4.394.392-7.395h1.498c5.04 1.713 9.193 1.821 12.458.323.008-2.569.073-5.087.196-7.552.123-2.465-.949-4.662-3.215-6.591-3.273-2.785-6.923-3.213-10.949-1.285-4.026 1.929-6.166 2.786-6.419 2.57-.499-.425.067-2.084 1.7-4.978 1.633-2.893 1.442-5.196-.57-6.909-1.506-1.282-2.889-1.602-4.149-.962l-.749-1.284c-2.267-1.929-4.534-1.929-6.8 0-.499.425-1.006 2.995-1.521 7.709a189.871 189.871 0 0 0-6.224-.481c-1.889-.111-4.598.694-8.124 2.413l-3.008.637zm48.714 44.029c-4.033 3.433-4.164 6.754-.392 9.965 2.52 2.145 5.797.86 9.831-3.855 1.26.641 4.279 1.282 9.058 1.922 1.514-.856 3.844-2.087 6.99-3.692 3.146-1.606 6.233-1.551 9.26.162 4.272 2.785 6.661 4.178 7.168 4.178-1.767-2.354-3.53-4.28-5.289-5.777-7.807-6.643-14.353-7.715-19.639-3.217-6.799-3.642-12.462-3.537-16.987.314zm7.929-31.818c11.332 5.787 19.515 10.822 24.548 15.105 5.792 4.93 10.698 9.752 14.717 14.467-4.779-1.504-8.932-1.828-12.458-.971l.76.647c8.559 2.145 14.221 4.394 16.987 6.748 6.047 5.146 5.167 16.612-2.639 34.397-7.053 15.85-14.229 26.88-21.528 33.092-.761.647-2.397 1.615-4.909 2.903-2.013 1.282-3.27 2.351-3.769 3.207v.648c2.259 1.922 6.534.206 12.827-5.149 5.793-4.93 11.899-13.661 18.318-26.193 6.42-12.532 9.756-22.226 10.01-29.086.253-6.859-1.572-12.59-5.474-17.193a4065.598 4065.598 0 0 0-11.905-13.976c-.246-4.499-1.249-7.928-3.008-10.289-3.02-4.714-4.908-7.822-5.665-9.323-.756-1.501-.505-3.427.755-5.782 1.26-2.354 1.759-4.066 1.498-5.139l-3.388 1.609c-3.773 3.21-4.529 7.281-2.27 12.211.253 1.497 2.52 5.571 6.799 12.22-15.858-10.932-25.927-15.65-30.206-14.153zm-61.184 43.715c-1.006.857-2.14 2.246-3.4 4.168.507.432 1.643.542 3.406.329 1.763-.213 3.271.214 4.523 1.28l-1.51 1.285c-2.773 2.36-5.919 3.325-9.438 2.893 1.26 1.936 2.139 3.116 2.639 3.541 1.26 1.072 3.526 2.145 6.799 3.217l-4.148 3.531c-2.774 2.36-2.901 6.542-.381 12.544 1.007-.438 3.903-.974 8.69-1.609 3.019-.437 5.409-2.046 7.168-4.825l1.141.324.184 1.441c.123.962.688 1.871 1.695 2.727 1.014.863 3.28 2.152 6.799 3.864.254-1.497 1.514-3.426 3.78-5.786 2.267-2.361 3.146-5.038 2.639-8.033 4.779.641 8.555.533 11.329-.324a125.115 125.115 0 0 0 8.309-2.893l-3.768-1.932c-.753-.641-1.696-2.408-2.83-5.302-1.133-2.893-2.456-4.983-3.97-6.272-3.273-2.785-7.299-1.497-12.078 3.865l-.38-.324.749-2.56c3.019-3.864 1.886-8.046-3.4-12.545-2.52-2.144-5.289-3.213-8.309-3.207 0 1.714-.503 4.071-1.509 7.072-6.039-.863-10.949.314-14.729 3.531zm119.337 3.207-.76 1.295c7.306 14.784 6.177 26.246-3.388 34.387-1.261 1.072-3.402 2.251-6.426 3.535-3.023 1.285-5.165 2.464-6.424 3.536l-1.13 1.609c6.799-.216 13.219-2.893 19.258-8.033 5.539-4.714 7.994-10.553 7.364-17.517-.63-6.964-3.461-13.234-8.494-18.812zm-69.113 11.25c5.539 1.72 10.073 4.08 13.599 7.081 4.525 3.852 8.111 9.153 10.758 15.904 2.647 6.751 3.091 12.589 1.332 17.512l1.129.961c6.546-13.705 3.899-25.595-7.94-35.671-6.547-5.571-12.839-7.5-18.878-5.787zm-104.977 21.215-1.141 2.893c-1.26.641-2.267 1.282-3.02 1.922-1.513 1.289-1.387 2.685.381 4.188 1.006.857 2.201 1.338 3.584 1.442 1.383.105 3.084 1.017 5.105 2.737 3.273 2.785 5.916 3.321 7.929 1.608 0-.431.753-2.576 2.259-6.434 1.014-2.144.641-3.965-1.118-5.463-5.793-4.93-10.453-5.895-13.979-2.893zm25.296 8.032 1.89.962c3.027 2.576 2.397 5.898-1.89 9.965l1.89.961 3.78 4.511c2.259 1.923 4.272 2.132 6.039.628.246-.209.246-1.922 0-5.139 2.52 0 4.533-.641 6.039-1.923 4.026-3.426 3.649-6.316-1.129-8.67.752-3.648.626-5.901-.381-6.758-2.013-1.713-4.592-1.659-7.738.162-3.147 1.821-5.98 3.589-8.5 5.301zm50.985 9.965c0 5.14 1.133 8.674 3.4 10.603 1.006.857 3.146 1.821 6.419 2.893 2.013 2.145 2.892 3.11 2.639 2.894 8.559 7.284 17.118 9.213 25.677 5.786l-.369-.961a184.727 184.727 0 0 0-9.45-1.608c-6.039-1.282-10.822-3.423-14.348-6.425-.753-.64-1.381-1.927-1.885-3.859-.503-1.932-1.507-3.539-3.013-4.821-1.014-.863-4.038-2.363-9.07-4.502zm-57.784 3.531c-6.8 5.787-6.424 13.823 1.129 24.108 1.521-1.713 3.035-5.355 4.541-10.926.253-1.497-.563-3.692-2.449-6.586-1.886-2.893-2.707-5.092-2.461-6.596h-.76zm71.383 38.252c8.812 3.642 18.251 1.18 28.316-7.386 7.806-6.643 10.952-12.753 9.439-18.331-3.02 5.578-6.543 10.079-10.568 13.506-7.807 6.643-16.869 10.713-27.187 12.211zM397.62 725.177a141.463 141.463 0 0 0-8.678 8.033c-3.027 3.858-3.158 6.964-.392 9.318.761.647 1.771 1.076 3.031 1.285.753 10.069-.884 17.674-4.91 22.813l-15.108 16.723c2.52-.432 5.793-2.36 9.819-5.787l5.67-4.825c9.565-8.141 12.208-18.106 7.929-29.895.753-.209 1.383-.53 1.89-.961 4.525-3.852 4.775-9.419.749-16.704zm-112.158 19.597c1.514 1.288 4.407 3.109 8.679 5.463l-1.499.647c-5.793 4.499-8.186 12.316-7.18 23.451l.369-.314c-.245.21 3.031-.006 9.831-.647 6.799-.641 12.085-1.925 15.858-3.855 1.006 1.72 2.516 3.437 4.529 5.15.253.216 1.894.964 4.921 2.246l2.259-3.217 6.419-4.169c1.006-.856 2.136-2.465 3.388-4.825 3.027.432 7.31.428 12.85-.01-1.514-2.138-1.892-5.134-1.135-8.989.756-3.855.251-6.534-1.516-8.038-3.019-2.569-6.982-2.087-11.887 1.447-4.906 3.534-8.115 4.657-9.629 3.369-1.006-.856-.127-2.462 2.639-4.816l1.129-.961c5.794-4.93 6.424-9.324 1.891-13.182-2.766-2.354-6.039-3.851-9.82-4.492-5.285-.641-8.681-1.177-10.187-1.609-.761 1.93-1.014 5.356-.761 10.279-4.279-1.497-8.119-1.227-11.519.809a150.703 150.703 0 0 0-9.629 6.263zm179.75 9.641c-1.506 1.282-3.016 3.639-4.529 7.072l21.147-10.289c8.813-2.779 16.995-.954 24.548 5.473 3.019 2.57 5.163 5.46 6.43 8.67l1.118.324c.761-4.492-1.003-8.562-5.29-12.211-5.785-4.923-13.021-7.227-21.706-6.91-8.686.317-15.925 2.941-21.718 7.871zm-27.187-14.133c-6.039 5.571-9.625 13.229-10.758 22.975-1.133 9.746 1.446 17.297 7.739 22.652 5.04 4.289 9.951 4.935 14.734 1.937a192.295 192.295 0 0 0 13.582-9.323l-3.769-.637c-1.514-.007-5.163 2.027-10.948 6.1-3.527 2.139-7.176 1.603-10.949-1.608-9.565-8.141-9.062-21.64 1.51-40.498l-1.141-1.598zm1.13 34.387c.253.216-.123 1.177-1.13 2.883 3.281-1.497 8.317-3.207 15.109-5.129 3.027-.863 11.713-1.403 26.057-1.619 11.832-.209 19.888-2.134 24.167-5.777-.253-.215-2.583.051-6.99.8-4.406.748-14.288 1.231-29.647 1.447-12.838.215-22.027 2.681-27.566 7.395zm44.196 5.463a397.764 397.764 0 0 1 4.149 5.453l-4.529 2.58c-1.759 1.497-2.393 4.175-1.901 8.032.253 5.356.38 8.249.38 8.68 2.274-.64 4.858-.586 7.75.162 2.893.749 5.346.908 7.359.476 1.014 3.858 1.648 5.895 1.901 6.11 1.007.857 2.956 1.768 5.849 2.732 2.893.964 5.219 2.411 6.978 4.34-.246-1.504 1.391-3.753 4.91-6.748 2.266-1.929 3.651-4.072 4.154-6.429.503-2.357.882-3.859 1.135-4.507 5.286 1.504 10.826.648 16.619-2.57l-1.13-.961c-.253-.216-.883-2.144-1.89-5.786-1.006-3.643-3.023-6.32-6.05-8.033-.246.641 1.644-.752 5.67-4.179.499-.424 1.066-1.119 1.7-2.084.634-.964 1.077-1.554 1.331-1.77a2786.156 2786.156 0 0 0-11.34-5.463c-4.026-1.929-7.549-1.609-10.568.961-1.26 1.072-2.205 2.949-2.835 5.63-.63 2.681-1.322 4.342-2.075 4.982l-3.031-1.284-4.149-6.121c-2.766-2.354-6.038-2.458-9.819-.314a705.683 705.683 0 0 0-10.568 6.111zm-137.085 8.68c-1.759 1.497-2.516 2.998-2.27 4.502 1.76-.647 4.529-1.507 8.309-2.58 2.267.216 5.286 0 9.058-.647l-2.258-1.922c-4.026-3.427-8.306-3.211-12.839.647zm21.528 2.883v.648c1.506 1.282 6.289 1.069 14.348-.638a586.626 586.626 0 0 0 16.239-3.54c4.778.209 11.198-.54 19.257-2.246l-.38-.971c-3.02-2.138-13.088-1.494-30.206 1.932 2.005-3.001 3.511-4.93 4.518-5.787 9.573-8.147 19.772-7.614 30.597 1.599 4.533 3.858 7.553 7.931 9.059 12.22l1.141.324c2.012-4.289-1.007-9.86-9.059-16.713-11.079-9.428-22.285-9.32-33.617.324-2.013 1.713-4.276 4.711-6.788 8.994-3.273 1.072-8.06 2.145-14.36 3.217l-.749.637zm-74.403 3.531c-4.279 3.643-6.797 8.251-7.554 13.825-.757 5.574.755 10.179 4.535 13.814l.749.01 2.455-6.591c1.636-4.394 4.091-7.983 7.364-10.769 6.047-5.146 13.159-7.985 21.338-8.518 8.178-.533 15.164 1.666 20.957 6.596 2.267 1.929 4.533 5.142 6.8 9.641l3.399 6.748 1.51.637.749-.637c.262-6.643-2.881-12.751-9.427-18.322-6.292-5.355-14.033-7.872-23.222-7.552-9.189.321-17.056 3.266-23.602 8.837-3.027 2.577-6.051 6.863-9.07 12.859-1.26-7.925.88-14.245 6.419-18.959 2.774-2.361 7.685-4.612 14.734-6.753 7.049-2.142 11.707-4.177 13.974-6.106 4.026-3.426 5.409-6.532 4.149-9.317h-.761c-1.759 3.21-3.396 5.46-4.909 6.748-1.76 1.497-6.227 3.263-13.403 5.296-7.176 2.033-12.904 4.871-17.184 8.513zm119.326 12.221c.507 1.713 2.651 3.963 6.431 6.748l-1.51 1.285c-2.02 1.288-3.532 3.431-4.535 6.429a170.016 170.016 0 0 1-3.025 8.361h11.34c1.506 3.427 3.139 5.889 4.898 7.386.761.647 2.211 1.453 4.351 2.418 2.14.964 3.709 2.087 4.707 3.369l1.142-2.894c7.053-6.002 9.949-10.396 8.689-13.182 5.286 1.073 9.942-.104 13.968-3.531-.254.216.883-1.176 3.411-4.178l2.259-.647c-2.267-1.497-6.17-3.531-11.709-6.101 1.514-5.996 1.894-10.602 1.141-13.819-2.021.856-4.668 1.285-7.941 1.285-3.272 0-5.539.536-6.799 1.608l-.749 1.285c-.5.857-.373 2.57.38 5.139.753 2.57.499 4.391-.76 5.463-1.514 1.289-3.277 1.076-5.29-.637s-2.263-4.711-.749-8.994c-2.766-1.504-5.788-1.185-9.064.956-3.277 2.142-6.806 2.892-10.586 2.251zM313.79 821.59c-2.266 1.929-1.89 4.179 1.129 6.748 2.267 1.929 6.988 2.626 14.164 2.089 7.176-.536 12.024-1.876 14.544-4.021-5.547-1.281-9.581-2.995-12.101-5.139-5.785-4.924-9.934-6.317-12.446-4.178l-.761 3.217c-1.506-.432-3.015-.004-4.529 1.284zm-36.256 15.419c.253.215-.25.86-1.51 1.932 3.265.216 13.211 3.325 29.837 9.327-1.014-2.144-2.151-3.753-3.411-4.825-3.273-2.786-8.809-5.143-16.607-7.072 6.039-4.289 15.224-11.681 27.555-22.176 1.26-1.072 3.34-2.519 6.241-4.34 2.9-1.821 4.976-3.264 6.229-4.33.253-.216.63-.752 1.129-1.609-4.533-.431-10.195 2.243-16.987 8.023-11.333 10.077-16.115 14.363-14.348 12.859l-18.128 12.211zm32.476-1.923c-1.007.857-.63 2.034 1.129 3.531-.245-.209 1.015.438 3.78 1.942-.752 1.923-.879 3.096-.38 3.521 1.26 1.073 4.533.324 9.819-2.246 5.286-2.57 8.935-4.711 10.948-6.424a246.852 246.852 0 0 1-13.207-1.609c-6.546-.431-10.576-.003-12.089 1.285zm39.276-8.356c-.507.431-.888 1.396-1.141 2.893-1.007.425-2.013 1.066-3.02 1.923-1.759 1.497-1.755 2.998.012 4.501.753.641 3.016.645 6.788.01l7.549-1.932c2.52 0 6.236 1.339 11.149 4.016 4.914 2.678 7.87 4.017 8.869 4.017l-2.259-2.57c-1.767-1.504-4.412-3.326-7.935-5.468-3.523-2.141-6.163-3.961-7.923-5.458-4.786-4.074-8.816-4.718-12.089-1.932zm-81.203 15.104c2.521 13.287.004 23.144-7.548 29.571-6.039 5.14-15.478 8.458-28.316 9.956l-.381 1.618c11.579 2.57 21.525.317 29.838-6.758 4.279-3.642 7.804-9.319 10.574-17.032 2.769-7.712 2.141-13.281-1.885-16.708l-1.141-.971-1.141.324zm-5.278-5.139c-7.806 10.069-11.836 15.212-12.089 15.428-1.759 1.497-4.527 3.424-8.304 5.782-3.776 2.357-6.544 4.284-8.303 5.781-7.053 6.003-12.089 18.005-15.109 36.006l1.13-.334c1.26-1.072 2.959-5.625 5.099-13.657 2.14-8.033 5.603-14.086 10.39-18.16 1.759-1.497 4.715-3.585 8.868-6.262 4.152-2.678 7.112-4.769 8.879-6.273 9.059-7.709 12.205-13.813 9.439-18.311zm20.399 21.852c1.506 2.576 3.645 6.326 6.419 11.25-3.527.856-7.556 1.716-12.089 2.579v1.275l3.399 2.894c.753.641 1.885 1.175 3.394 1.603 1.51.429 2.645.967 3.406 1.614-2.52 9.429-4.66 14.676-6.419 15.742 3.265 2.36 7.354 3.058 12.267 2.094 4.914-.965 8.754-2.84 11.519-5.625 1.26 2.354 2.897 6.1 4.91 11.24l.76.647 1.13-1.608 9.439-6.739c4.033-3.432 5.416-6.97 4.148-10.612 2.774-.647 4.914-1.396 6.42-2.246l3.78-3.217c1.26-1.922 2.646-3.527 4.16-4.816.507-.431 2.774-.863 6.8-1.294-3.281-3.211-8.698-6.957-16.25-11.24 1.26-2.786 2.017-6.647 2.27-11.584a376.12 376.12 0 0 1-11.138-.152c-3.899-.107-6.982.803-9.249 2.732-2.013 1.713-2.896 5.251-2.65 10.612a8.781 8.781 0 0 0-1.89-2.256c-3.527-3.001-11.706-3.965-24.536-2.893zm257.171-5.804 1.13.961c0 1.713 2.139 4.391 6.419 8.033a10.124 10.124 0 0 1-2.651 1.608l-.749.638 1.89 1.608c2.52 2.145 5.983 3.272 10.39 3.379 4.406.108 8.119 1.447 11.138 4.017l.749-.638c0-1.281-.376-3.105-1.129-5.473 3.526.007 7.429-1.17 11.709-3.531l-1.13-.961c-3.78-1.072-6.55-2.357-8.309-3.855a64.58 64.58 0 0 0 1.51-9.641l-5.302-8.356c-1.006.857-2.767 1.82-5.283 2.888-2.516 1.069-4.278 2.033-5.284 2.889-1.768 1.504-2.901 3.325-3.4 5.463l-11.698.971zm-24.547 6.748c1.506 2.145 2.132 3.109 1.878 2.893.507.432 4.664 2.041 12.47 4.826l1.498 1.922-4.149.961.761.648c2.766 2.354 6.415 3.531 10.948 3.53 0 2.145.757 3.862 2.271 5.15 1.006.856 4.025 1.713 9.058 2.569 5.032.857 8.305 1.714 9.819 2.57.753-1.072-1.514-3.858-6.8-8.356-4.026-3.426-8.052-5.139-12.077-5.14l-1.51-1.932c-1.26-1.072-3.15-1.608-5.67-1.609-.5-2.137-1.506-3.85-3.02-5.139-.507-.431-5.666-1.396-15.477-2.893zm43.424 13.182c.753 4.93 3.519 9.429 8.298 13.496 1.514 1.288 2.9 2.037 4.161 2.246.253-3.642-3.396-8.677-10.949-15.105l-1.51-.637zm22.278 10.602c-3.273 2.786-3.274 5.571 0 8.357 3.273 2.785 6.799 2.57 10.579-.648 2.512-2.138 2.005-4.707-1.521-7.709-3.02-2.569-6.039-2.569-9.058 0zm-89.869 5.14c.753 2.354 2.389 5.675 4.909 9.965-1.006.856-2.266 2.57-3.78 5.139.246 3.217.119 7.824-.38 13.82 7.552 3.433 14.475 2.471 20.767-2.884l4.529-5.149c3.527 1.72 6.673 2.684 9.439 2.893-.254-1.929-.123-4.394.392-7.395h1.498c5.04 1.713 9.193 1.821 12.458.323.008-2.569.073-5.086.196-7.552.123-2.465-.949-4.662-3.215-6.591-3.273-2.785-6.923-3.213-10.949-1.285-4.026 1.929-6.166 2.786-6.419 2.57-.499-.425.067-2.084 1.7-4.977 1.633-2.894 1.442-5.197-.57-6.91-1.506-1.281-2.889-1.602-4.149-.961l-.749-1.285c-2.267-1.929-4.534-1.929-6.8 0-.499.425-1.006 2.995-1.521 7.709a189.871 189.871 0 0 0-6.224-.481c-1.889-.111-4.598.694-8.124 2.413l-3.008.638zm48.714 44.028c-4.033 3.433-4.164 6.755-.392 9.965 2.52 2.145 5.797.86 9.831-3.855 1.26.641 4.279 1.282 9.058 1.923 1.514-.857 3.844-2.088 6.99-3.693 3.146-1.606 6.233-1.551 9.26.162 4.272 2.785 6.661 4.178 7.168 4.178-1.767-2.354-3.53-4.279-5.289-5.777-7.807-6.643-14.353-7.715-19.639-3.217-6.799-3.642-12.462-3.537-16.987.314zm7.929-31.817c11.332 5.787 19.515 10.821 24.548 15.104 5.792 4.93 10.698 9.753 14.717 14.467-4.779-1.504-8.932-1.828-12.458-.971l.76.647c8.559 2.145 14.221 4.394 16.987 6.748 6.047 5.146 5.167 16.612-2.639 34.397-7.053 15.85-14.229 26.88-21.528 33.092-.761.65-2.397 1.62-4.909 2.9-2.013 1.29-3.27 2.35-3.769 3.21v.65c2.259 1.92 6.534.2 12.827-5.15 5.793-4.93 11.899-13.662 18.318-26.194 6.42-12.531 9.756-22.226 10.01-29.085.253-6.86-1.572-12.59-5.474-17.194a4163.292 4163.292 0 0 0-11.905-13.976c-.246-4.499-1.249-7.928-3.008-10.289-3.02-4.714-4.908-7.822-5.665-9.323-.756-1.5-.505-3.427.755-5.781 1.26-2.355 1.759-4.067 1.498-5.14l-3.388 1.609c-3.773 3.211-4.529 7.281-2.27 12.211.253 1.497 2.52 5.571 6.799 12.221-15.858-10.933-25.927-15.65-30.206-14.153zM487.12 944.34c-1.006.857-2.14 2.246-3.4 4.168.507.432 1.643.542 3.406.329 1.763-.213 3.271.214 4.523 1.28l-1.51 1.285c-2.773 2.36-5.919 3.325-9.438 2.893 1.26 1.936 2.139 3.116 2.639 3.541 1.26 1.072 3.526 2.145 6.799 3.217l-4.148 3.531c-2.774 2.361-2.901 6.542-.381 12.544 1.007-.438 3.903-.974 8.69-1.608 3.019-.438 5.409-2.047 7.168-4.826l1.141.324.184 1.442c.123.961.688 1.87 1.695 2.726 1.014.864 3.28 2.152 6.799 3.865.254-1.497 1.514-3.426 3.78-5.787 2.267-2.361 3.146-5.038 2.639-8.033 4.779.641 8.555.533 11.329-.324 2.773-.856 5.543-1.82 8.309-2.893l-3.768-1.932c-.753-.641-1.696-2.408-2.83-5.301-1.133-2.894-2.456-4.984-3.97-6.273-3.273-2.785-7.299-1.497-12.078 3.865l-.38-.324.749-2.56c3.019-3.864 1.886-8.045-3.4-12.544-2.52-2.145-5.289-3.214-8.309-3.208 0 1.714-.503 4.071-1.509 7.072-6.039-.863-10.949.314-14.729 3.531zm119.337 3.207-.76 1.295c7.306 14.784 6.177 26.246-3.388 34.387-1.261 1.072-3.402 2.251-6.426 3.536-3.023 1.284-5.165 2.463-6.424 3.535l-1.13 1.609c6.799-.216 13.219-2.893 19.258-8.033 5.539-4.714 7.994-10.553 7.364-17.517-.63-6.964-3.461-13.234-8.494-18.812zm-69.113 11.25c5.539 1.72 10.073 4.08 13.599 7.081 4.525 3.852 8.111 9.153 10.758 15.904 2.647 6.751 3.091 12.589 1.332 17.512l1.129.966c6.546-13.709 3.899-25.6-7.94-35.676-6.547-5.571-12.839-7.5-18.878-5.787zm-104.977 21.215-1.141 2.893c-1.26.641-2.267 1.282-3.02 1.923-1.513 1.288-1.387 2.684.381 4.188 1.006.856 2.201 1.337 3.584 1.441 1.383.105 3.084 1.017 5.105 2.737 3.273 2.785 5.916 3.322 7.929 1.608 0-.431.753-2.576 2.259-6.434 1.014-2.144.641-3.965-1.118-5.463-5.793-4.93-10.453-5.894-13.979-2.893zm25.296 8.033 1.89.961c3.027 2.576 2.397 5.898-1.89 9.965l1.89.961 3.78 4.508c2.259 1.93 4.272 2.14 6.039.63.246-.21.246-1.92 0-5.138 2.52 0 4.533-.641 6.039-1.923 4.026-3.426 3.649-6.316-1.129-8.67.752-3.648.626-5.901-.381-6.758-2.013-1.712-4.592-1.659-7.738.162-3.147 1.821-5.98 3.589-8.5 5.302zm50.985 9.964c0 5.141 1.133 8.671 3.4 10.601 1.006.86 3.146 1.82 6.419 2.9 2.013 2.14 2.892 3.1 2.639 2.89 8.559 7.28 17.118 9.21 25.677 5.79l-.369-.97c-3.273-.64-6.423-1.17-9.45-1.6-6.039-1.29-10.822-3.43-14.348-6.43-.753-.64-1.381-1.93-1.885-3.86-.503-1.93-1.507-3.54-3.013-4.82-1.014-.86-4.038-2.36-9.07-4.501zm-57.784 3.531c-6.8 5.79-6.424 13.82 1.129 24.11 1.521-1.71 3.035-5.36 4.541-10.93.253-1.49-.563-3.69-2.449-6.58-1.886-2.9-2.707-5.1-2.461-6.6h-.76zm71.383 38.25c8.812 3.64 18.251 1.18 28.316-7.38 7.806-6.65 10.952-12.76 9.439-18.33-3.02 5.57-6.543 10.07-10.568 13.5-7.807 6.64-16.869 10.71-27.187 12.21zm-124.627-35.35a140.013 140.013 0 0 0-8.678 8.04c-3.027 3.85-3.158 6.96-.392 9.31.761.65 1.771 1.08 3.031 1.29.753 10.07-.884 17.67-4.91 22.81l-15.108 16.73c2.52-.44 5.793-2.37 9.819-5.79l5.67-4.83c9.565-8.14 12.208-18.1 7.929-29.89.753-.21 1.383-.53 1.89-.96 4.525-3.85 4.775-9.42.749-16.71zm-112.158 19.6c1.514 1.29 4.407 3.11 8.679 5.46l-1.499.65c-5.793 4.5-8.186 12.32-7.18 23.45l.369-.31c-.245.21 3.031-.01 9.831-.65 6.799-.64 12.085-1.93 15.858-3.85 1.006 1.72 2.516 3.43 4.529 5.14.253.22 1.894.97 4.921 2.25l2.259-3.22 6.419-4.16c1.006-.86 2.136-2.47 3.388-4.83 3.027.43 7.31.43 12.85-.01-1.514-2.14-1.892-5.13-1.135-8.99.756-3.85.251-6.53-1.516-8.04-3.019-2.57-6.982-2.08-11.887 1.45-4.906 3.53-8.115 4.66-9.629 3.37-1.006-.86-.127-2.46 2.639-4.82l1.129-.96c5.794-4.93 6.424-9.32 1.891-13.18-2.766-2.35-6.039-3.85-9.82-4.49-5.285-.64-8.681-1.18-10.187-1.61-.761 1.93-1.014 5.36-.761 10.28-4.279-1.5-8.119-1.23-11.519.81-3.4 2.03-6.609 4.12-9.629 6.26zm179.75 9.64c-1.506 1.28-3.016 3.64-4.529 7.07l21.147-10.29c8.813-2.77 16.995-.95 24.548 5.48 3.019 2.57 5.163 5.46 6.43 8.67l1.118.32c.761-4.49-1.003-8.56-5.29-12.21-5.785-4.92-13.021-7.23-21.706-6.91-8.686.32-15.925 2.94-21.718 7.87zm-27.187-14.13c-6.039 5.57-9.625 13.23-10.758 22.97-1.133 9.75 1.446 17.3 7.739 22.65 5.04 4.29 9.951 4.94 14.734 1.94 4.783-3 9.31-6.1 13.582-9.32l-3.769-.64c-1.514 0-5.163 2.03-10.948 6.1-3.527 2.14-7.176 1.6-10.949-1.61-9.565-8.14-9.062-21.64 1.51-40.49l-1.141-1.6zm1.13 34.38c.253.22-.123 1.18-1.13 2.89 3.281-1.5 8.317-3.21 15.109-5.13 3.027-.86 11.713-1.4 26.057-1.62 11.832-.21 19.888-2.13 24.167-5.78-.253-.21-2.583.05-6.99.8-4.406.75-14.288 1.23-29.647 1.45-12.838.22-22.027 2.68-27.566 7.39zm44.196 5.47c.999 1.28 2.382 3.1 4.149 5.45l-4.529 2.58c-1.759 1.5-2.393 4.18-1.901 8.03.253 5.36.38 8.25.38 8.68 2.274-.64 4.858-.58 7.75.17 2.893.74 5.346.9 7.359.47 1.014 3.86 1.648 5.9 1.901 6.11 1.007.86 2.956 1.77 5.849 2.73 2.893.97 5.219 2.41 6.978 4.34-.246-1.5 1.391-3.75 4.91-6.74 2.266-1.93 3.651-4.08 4.154-6.43.503-2.36.882-3.86 1.135-4.51 5.286 1.5 10.826.65 16.619-2.57l-1.13-.96c-.253-.22-.883-2.15-1.89-5.79-1.006-3.64-3.023-6.32-6.05-8.03-.246.64 1.644-.75 5.67-4.18.499-.42 1.066-1.12 1.7-2.08.634-.97 1.077-1.56 1.331-1.77-3.534-1.72-7.314-3.54-11.34-5.47-4.026-1.93-7.549-1.61-10.568.96-1.26 1.08-2.205 2.95-2.835 5.63-.63 2.68-1.322 4.35-2.075 4.99l-3.031-1.29-4.149-6.12c-2.766-2.35-6.038-2.46-9.819-.31-3.78 2.14-7.302 4.18-10.568 6.11zm-137.085 8.68c-1.759 1.5-2.516 3-2.27 4.5 1.76-.65 4.529-1.51 8.309-2.58 2.267.22 5.286 0 9.058-.65l-2.258-1.92c-4.026-3.43-8.306-3.21-12.839.65zm21.528 2.88v.65c1.506 1.28 6.289 1.07 14.348-.64a572.374 572.374 0 0 0 16.239-3.54c4.778.21 11.198-.54 19.257-2.25l-.38-.97c-3.02-2.13-13.088-1.49-30.206 1.94 2.005-3.01 3.511-4.93 4.518-5.79 9.573-8.15 19.772-7.62 30.597 1.6 4.533 3.86 7.553 7.93 9.059 12.22l1.141.32c2.012-4.29-1.007-9.86-9.059-16.71-11.079-9.43-22.285-9.32-33.617.32-2.013 1.72-4.276 4.71-6.788 9-3.273 1.07-8.06 2.14-14.36 3.21l-.749.64zm-74.403 3.53c-4.279 3.64-6.797 8.25-7.554 13.83-.757 5.57.755 10.18 4.535 13.81l.749.01 2.455-6.59c1.636-4.39 4.091-7.98 7.364-10.77 6.047-5.14 13.159-7.98 21.338-8.52 8.178-.53 15.164 1.67 20.957 6.6 2.267 1.93 4.533 5.14 6.8 9.64l3.399 6.75 1.51.64.749-.64c.262-6.65-2.881-12.75-9.427-18.32-6.292-5.36-14.033-7.88-23.222-7.56-9.189.32-17.056 3.27-23.602 8.84-3.027 2.58-6.051 6.86-9.07 12.86-1.26-7.92.88-14.24 6.419-18.96 2.774-2.36 7.685-4.61 14.734-6.75 7.049-2.14 11.707-4.18 13.974-6.11 4.026-3.42 5.409-6.53 4.149-9.32h-.761c-1.759 3.22-3.396 5.46-4.909 6.75-1.76 1.5-6.227 3.27-13.403 5.3s-12.904 4.87-17.184 8.51zm119.326 12.22c.507 1.72 2.651 3.97 6.431 6.75l-1.51 1.29c-2.02 1.28-3.532 3.43-4.535 6.43a174.575 174.575 0 0 1-3.025 8.36h11.34c1.506 3.42 3.139 5.88 4.898 7.38.761.65 2.211 1.46 4.351 2.42s3.709 2.09 4.707 3.37l1.142-2.89c7.053-6.01 9.949-10.4 8.689-13.19 5.286 1.08 9.942-.1 13.968-3.53-.254.22.883-1.17 3.411-4.18l2.259-.64c-2.267-1.5-6.17-3.53-11.709-6.1 1.514-6 1.894-10.61 1.141-13.82-2.021.85-4.668 1.28-7.941 1.28-3.272 0-5.539.54-6.799 1.61l-.749 1.29c-.5.85-.373 2.56.38 5.13s.499 4.4-.76 5.47c-1.514 1.29-3.277 1.07-5.29-.64s-2.263-4.71-.749-8.99c-2.766-1.51-5.788-1.19-9.064.95-3.277 2.14-6.806 2.89-10.586 2.25zm-98.927 14.15c-2.266 1.93-1.89 4.17 1.129 6.74 2.267 1.93 6.988 2.63 14.164 2.09 7.176-.53 12.024-1.87 14.544-4.02-5.547-1.28-9.581-2.99-12.101-5.14-5.785-4.92-9.934-6.31-12.446-4.18l-.761 3.22c-1.506-.43-3.015 0-4.529 1.29zm-36.256 15.41c.253.22-.25.86-1.51 1.94 3.265.21 13.211 3.32 29.837 9.32-1.014-2.14-2.151-3.75-3.411-4.82-3.273-2.79-8.809-5.14-16.607-7.07 6.039-4.29 15.224-11.68 27.555-22.18 1.26-1.07 3.34-2.52 6.241-4.34 2.9-1.82 4.976-3.26 6.229-4.33.253-.21.63-.75 1.129-1.61-4.533-.43-10.195 2.25-16.987 8.03-11.333 10.07-16.115 14.36-14.348 12.85l-18.128 12.21zm32.476-1.92c-1.007.86-.63 2.04 1.129 3.53-.245-.21 1.015.44 3.78 1.95-.752 1.92-.879 3.09-.38 3.52 1.26 1.07 4.533.32 9.819-2.25 5.286-2.57 8.935-4.71 10.948-6.42-4.533-.44-8.935-.97-13.207-1.61-6.546-.43-10.576-.01-12.089 1.28zm39.276-8.35c-.507.43-.888 1.39-1.141 2.89-1.007.42-2.013 1.07-3.02 1.92-1.759 1.5-1.755 3 .012 4.5.753.64 3.016.65 6.788.01l7.549-1.93c2.52 0 6.236 1.34 11.149 4.02 4.914 2.68 7.87 4.01 8.869 4.01l-2.259-2.57c-1.767-1.5-4.412-3.32-7.935-5.46-3.523-2.15-6.163-3.96-7.923-5.46-4.786-4.08-8.816-4.72-12.089-1.93zm-81.203 15.1c2.521 13.29.004 23.14-7.548 29.57-6.039 5.14-15.478 8.46-28.316 9.96l-.381 1.61c11.579 2.57 21.525.32 29.838-6.75 4.279-3.64 7.804-9.32 10.574-17.03 2.769-7.72 2.141-13.29-1.885-16.71l-1.141-.97-1.141.32zm-5.278-5.14c-7.806 10.07-11.836 15.21-12.089 15.43-1.759 1.5-4.527 3.42-8.304 5.78-3.776 2.36-6.544 4.29-8.303 5.78-7.053 6.01-12.089 18.01-15.109 36.01l1.13-.34c1.26-1.07 2.959-5.62 5.099-13.65 2.14-8.04 5.603-14.09 10.39-18.16 1.759-1.5 4.715-3.59 8.868-6.27 4.152-2.67 7.112-4.76 8.879-6.27 9.059-7.71 12.205-13.81 9.439-18.31zm20.399 21.85c1.506 2.58 3.645 6.33 6.419 11.25-3.527.86-7.556 1.72-12.089 2.58v1.28l3.399 2.89c.753.64 1.885 1.18 3.394 1.6 1.51.43 2.645.97 3.406 1.62-2.52 9.43-4.66 14.67-6.419 15.74 3.265 2.36 7.354 3.06 12.267 2.09 4.914-.96 8.754-2.84 11.519-5.62 1.26 2.35 2.897 6.1 4.91 11.24l.76.65 1.13-1.61 9.439-6.74c4.033-3.43 5.416-6.97 4.148-10.61 2.774-.65 4.914-1.4 6.42-2.25l3.78-3.22c1.26-1.92 2.646-3.52 4.16-4.81.507-.43 2.774-.86 6.8-1.3-3.281-3.21-8.698-6.95-16.25-11.24 1.26-2.78 2.017-6.64 2.27-11.58-3.526.01-7.239-.04-11.138-.15-3.899-.11-6.982.8-9.249 2.73-2.013 1.71-2.896 5.25-2.65 10.61a8.787 8.787 0 0 0-1.89-2.25c-3.527-3-11.706-3.97-24.536-2.9z" fill="#99B898" fill-opacity=".25"/><defs><linearGradient id="paint0_linear" x1="-612.135" y1="1586.4" x2="-612.135" y2="1373.14" gradientUnits="userSpaceOnUse"><stop/><stop offset="1" stop-opacity="0"/></linearGradient><linearGradient id="paint1_linear" x1="-612.135" y1="1139.66" x2="-612.135" y2="1373.14" gradientUnits="userSpaceOnUse"><stop/><stop offset="1" stop-opacity="0"/></linearGradient><linearGradient id="paint2_linear" x1="-271.417" y1="2077.87" x2="66.072" y2="2077.87" gradientUnits="userSpaceOnUse"><stop/><stop offset="1" stop-opacity="0"/></linearGradient><linearGradient id="paint3_linear" x1="1385.87" y1="2077.87" x2="767.247" y2="2077.87" gradientUnits="userSpaceOnUse"><stop/><stop offset="1" stop-opacity="0"/></linearGradient><linearGradient id="paint4_linear" x1="-612.135" y1="1508.52" x2="-612.135" y2="1238.35" gradientUnits="userSpaceOnUse"><stop/><stop offset="1" stop-opacity="0"/></linearGradient><linearGradient id="paint5_linear" x1="-612.135" y1="990.492" x2="-612.135" y2="1238.35" gradientUnits="userSpaceOnUse"><stop/><stop offset="1" stop-opacity="0"/></linearGradient><linearGradient id="paint6_linear" x1="917.331" y1="2079.88" x2="638.476" y2="2079.88" gradientUnits="userSpaceOnUse"><stop/><stop offset="1" stop-opacity="0"/></linearGradient><linearGradient id="paint7_linear" x1="-62.699" y1="2079.88" x2="248.046" y2="2079.88" gradientUnits="userSpaceOnUse"><stop/><stop offset="1" stop-opacity="0"/></linearGradient><linearGradient id="paint8_linear" x1="105.796" y1="-618.688" x2="346.574" y2="-618.688" gradientUnits="userSpaceOnUse"><stop/><stop offset="1" stop-opacity="0"/></linearGradient><linearGradient id="paint9_linear" x1="768.717" y1="-618.688" x2="520.181" y2="-618.688" gradientUnits="userSpaceOnUse"><stop/><stop offset="1" stop-opacity="0"/></linearGradient><linearGradient id="paint10_linear" x1="-602.266" y1="1380.98" x2="-602.266" y2="1118.03" gradientUnits="userSpaceOnUse"><stop/><stop offset="1" stop-opacity="0"/></linearGradient><linearGradient id="paint11_linear" x1="-602.266" y1="-31.912" x2="-602.266" y2="338.14" gradientUnits="userSpaceOnUse"><stop/><stop offset="1" stop-opacity="0"/></linearGradient><linearGradient id="paint12_linear" x1="-602.267" y1="-65.9" x2="-602.267" y2="201.708" gradientUnits="userSpaceOnUse"><stop/><stop offset="1" stop-opacity="0"/></linearGradient><linearGradient id="paint13_linear" x1="-602.267" y1="447.205" x2="-602.267" y2="201.708" gradientUnits="userSpaceOnUse"><stop/><stop offset="1" stop-opacity="0"/></linearGradient><linearGradient id="paint14_linear" x1="912.656" y1="-631.821" x2="636.452" y2="-631.821" gradientUnits="userSpaceOnUse"><stop/><stop offset="1" stop-opacity="0"/></linearGradient><linearGradient id="paint15_linear" x1="-58.056" y1="-631.821" x2="249.735" y2="-631.821" gradientUnits="userSpaceOnUse"><stop/><stop offset="1" stop-opacity="0"/></linearGradient><linearGradient id="paint16_linear" x1="-602.267" y1="-143.019" x2="-602.267" y2="68.212" gradientUnits="userSpaceOnUse"><stop/><stop offset="1" stop-opacity="0"/></linearGradient><linearGradient id="paint17_linear" x1="-602.267" y1="299.474" x2="-602.267" y2="68.212" gradientUnits="userSpaceOnUse"><stop/><stop offset="1" stop-opacity="0"/></linearGradient><linearGradient id="paint18_linear" x1="-264.789" y1="-629.814" x2="69.49" y2="-629.814" gradientUnits="userSpaceOnUse"><stop/><stop offset="1" stop-opacity="0"/></linearGradient><linearGradient id="paint19_linear" x1="1376.74" y1="-629.814" x2="763.998" y2="-629.814" gradientUnits="userSpaceOnUse"><stop/><stop offset="1" stop-opacity="0"/></linearGradient></defs></svg>